<svg width="537" height="358" viewBox="0 0 537 358" fill="none" xmlns="http://www.w3.org/2000/svg">
<path d="M471.693 38.1699H378.184V206.151H471.693V38.1699Z" fill="#EBEBEB"/>
<path d="M466.99 43.0459H381.922V201.146H466.99V43.0459Z" fill="#FAFAFA"/>
<path d="M475.646 207.669L471.693 206.151V35.3281H475.646V207.669Z" fill="#E0E0E0"/>
<path d="M468.837 88.5264H381.922V90.209H468.837V88.5264Z" fill="#E0E0E0"/>
<path d="M468.837 126.174H381.922V127.856H468.837V126.174Z" fill="#E0E0E0"/>
<path d="M468.837 163.828H381.922V165.511H468.837V163.828Z" fill="#E0E0E0"/>
<path d="M422.304 89.3638V205.628H426.6V89.3638H422.304Z" fill="#E0E0E0"/>
<path d="M400.251 43.0459H398.304V89.3711H400.251V43.0459Z" fill="#E0E0E0"/>
<path d="M417.041 43.0459H415.094V89.3711H417.041V43.0459Z" fill="#E0E0E0"/>
<path d="M433.839 43.0459H431.892V89.3711H433.839V43.0459Z" fill="#E0E0E0"/>
<path d="M450.629 43.0459H448.682V89.3711H450.629V43.0459Z" fill="#E0E0E0"/>
<path d="M378.184 35.3281H374.231V207.197H378.184V35.3281Z" fill="#E0E0E0"/>
<path d="M475.646 33.5879H374.231V38.1703H475.646V33.5879Z" fill="#E0E0E0"/>
<path d="M478.324 208.228H371.425V212.495H478.324V208.228Z" fill="#E0E0E0"/>
<path d="M471.693 206.151L478.324 208.228H371.425L378.184 206.151H471.693Z" fill="#E0E0E0"/>
<path d="M73.1895 247.386H44.2917V255.033H73.1895V247.386Z" fill="#EBEBEB"/>
<path d="M60.9674 263.08C60.9645 263.035 60.9645 262.99 60.9674 262.944V262.551C60.9674 262.193 60.9674 261.691 60.9674 261.047C60.9674 259.729 60.9674 257.832 60.9173 255.441L61.0032 255.527L32.0768 255.612L32.22 255.469V259.35C32.22 260.624 32.22 261.885 32.22 263.109L32.0768 262.966L52.669 263.03L58.7478 263.073H60.3946H60.9746C60.9746 263.073 60.9316 263.073 60.8457 263.073H60.4304H58.8194L52.7764 263.109L32.0768 263.173H31.9336V255.441C32.2272 255.14 32.0124 255.355 32.084 255.29L60.9746 255.348H61.0676V255.441C61.0676 257.854 61.0676 259.737 61.0175 261.097C61.0175 261.734 61.0175 262.228 61.0175 262.586C61.0175 262.737 61.0175 262.866 61.0175 262.959C61.0175 263.052 60.9746 263.088 60.9674 263.08Z" fill="#E0E0E0"/>
<path d="M67.2112 49.7907C67.2112 49.7907 67.2112 49.7406 67.2112 49.6547V49.2609C67.2112 48.9029 67.2112 48.4017 67.2112 47.7573C67.2112 46.4399 67.2112 44.5425 67.1611 42.151L67.247 42.2369L38.3564 42.2942L38.4996 42.151V49.7907L38.3493 49.6475L58.9486 49.712L65.0274 49.7549H66.6671H67.247C67.247 49.7549 67.2112 49.7549 67.1181 49.7549H66.7029H65.0919L59.0488 49.7907L38.3493 49.8552H38.2061V42.1582L38.3564 42.0078L67.247 42.0651H67.3043V42.1582C67.3043 44.5711 67.3043 46.4542 67.2542 47.8146C67.2542 48.4518 67.2542 48.9459 67.2542 49.3039C67.2542 49.4542 67.2542 49.5831 67.2542 49.6762C67.2542 49.7693 67.2184 49.7979 67.2112 49.7907Z" fill="#E0E0E0"/>
<path d="M508.682 251.216C508.679 251.171 508.679 251.125 508.682 251.08V250.686C508.682 250.328 508.682 249.827 508.682 249.183C508.682 247.858 508.682 245.961 508.632 243.569L508.718 243.662L479.82 243.72C479.892 243.655 479.677 243.863 479.971 243.569V247.443C479.971 248.717 479.971 249.97 479.971 251.202L479.827 251.059L500.42 251.123L506.498 251.166H508.145H508.575H508.16H506.549L500.484 251.316L479.792 251.381H479.648V243.584L479.792 243.44L508.689 243.498H508.782V243.584C508.782 246.004 508.74 247.915 508.732 249.247C508.732 249.887 508.732 250.381 508.732 250.729C508.732 250.887 508.732 251.009 508.732 251.109C508.732 251.209 508.689 251.216 508.682 251.216Z" fill="#E0E0E0"/>
<path d="M123.868 94.2832C123.865 94.2379 123.865 94.1925 123.868 94.1472V93.7534C123.868 93.3954 123.868 92.8942 123.868 92.2498C123.868 90.9252 123.868 89.035 123.825 86.6364L123.911 86.7294L95.0132 86.7867L95.1636 86.6364V90.5099C95.1636 91.7844 95.1636 93.0374 95.1636 94.2689L95.0204 94.1257L115.613 94.1902L121.691 94.2331H123.338H123.782H123.374H121.763L115.713 94.2761L95.0204 94.3405H94.8772V88.5051C94.8772 88.1829 94.8772 87.8607 94.8772 87.5314V86.6364L95.0276 86.4932L123.925 86.5504H124.018V86.6364C124.018 89.0564 123.975 90.9324 123.968 92.2999C123.968 92.9372 123.968 93.4312 123.968 93.7892C123.968 93.9396 123.968 94.0613 123.968 94.1615C123.94 94.2062 123.907 94.2471 123.868 94.2832Z" fill="#E0E0E0"/>
<path d="M127.806 86.6359C127.803 86.5882 127.803 86.5404 127.806 86.4927C127.806 86.3853 127.806 86.2493 127.806 86.0918C127.806 85.7123 127.806 85.2039 127.806 84.5524C127.806 83.2134 127.806 81.3232 127.748 78.9962L127.856 79.0964L110.493 79.1394C110.364 79.2754 110.672 78.9604 110.643 78.9962V82.9199C110.643 84.1944 110.643 85.433 110.643 86.6216L110.5 86.4856L122.922 86.55L126.538 86.593H127.519H127.863C127.758 86.6033 127.653 86.6033 127.548 86.593H126.603L123.023 86.6359L110.507 86.7004H110.371V86.6359C110.371 85.4474 110.371 84.2087 110.371 82.9342V79.0105C110.335 79.0105 110.65 78.7313 110.514 78.8602L127.877 78.9031H127.985V79.0105C127.985 81.3662 127.942 83.3065 127.927 84.6311C127.927 85.2684 127.927 85.7696 127.927 86.1419C127.897 86.3088 127.856 86.4738 127.806 86.6359Z" fill="#E0E0E0"/>
<path d="M504.694 91.7848C504.689 91.7373 504.689 91.6892 504.694 91.6416C504.694 91.5414 504.694 91.4125 504.694 91.255C504.694 90.8898 504.694 90.3886 504.694 89.7442C504.694 88.4268 504.694 86.5294 504.644 84.138L504.737 84.2239L475.839 84.2883C475.904 84.2167 475.689 84.4315 475.983 84.138V91.7705L475.839 91.6273L496.432 91.6918H502.51H504.15H504.58H504.737H504.186H502.575L496.532 91.7347L475.839 91.7992H475.696V91.656C475.696 90.4244 475.696 89.1714 475.696 87.8898V84.0234L475.847 83.873L504.744 83.9303H504.78V84.0234C504.78 86.4363 504.78 88.3194 504.73 89.687C504.73 90.317 504.73 90.8182 504.73 91.1691V91.6488C504.694 91.7419 504.694 91.7848 504.694 91.7848Z" fill="#E0E0E0"/>
<path d="M508.611 84.138C508.605 84.0904 508.605 84.0423 508.611 83.9948V83.5866C508.611 83.2143 508.611 82.6988 508.611 82.0544C508.611 80.7155 508.611 78.8181 508.553 76.4911L508.661 76.5985L491.248 76.6128C491.119 76.7417 491.427 76.4338 491.391 76.4624V80.3861C491.391 81.6678 491.391 82.9064 491.391 84.095L491.255 83.9518L503.677 84.0234H507.257H508.231C508.348 84.0134 508.465 84.0134 508.582 84.0234C508.477 84.035 508.372 84.035 508.267 84.0234H507.322H503.742L491.226 84.095H491.083V80.2429C491.083 79.6057 491.083 78.9541 491.083 78.2954V76.3192C491.083 76.3192 491.362 76.04 491.233 76.176L508.596 76.2118H508.704V76.3121C508.704 78.6677 508.661 80.6081 508.647 81.9398C508.647 82.5771 508.647 83.0783 508.647 83.4506C508.652 83.6803 508.64 83.9101 508.611 84.138Z" fill="#E0E0E0"/>
<path d="M73.0462 147.547H44.1484V155.194H73.0462V147.547Z" fill="#E0E0E0"/>
<path d="M93.8245 131.845H64.9268V139.492H93.8245V131.845Z" fill="#EBEBEB"/>
<path d="M81.624 147.547C81.6168 147.499 81.6168 147.451 81.624 147.403V147.01C81.624 146.652 81.624 146.15 81.624 145.506C81.624 144.189 81.624 142.291 81.5739 139.9L81.6669 139.986L52.7692 140.043L52.9124 139.9V147.532L52.7692 147.382L73.3613 147.453H79.4402H81.087H81.5166H81.6669H81.1228H79.5046L73.4616 147.496L52.7692 147.561H52.626V147.418C52.626 146.186 52.626 144.933 52.626 143.652V139.785L52.7763 139.635L81.6741 139.692H81.76V139.785C81.76 142.198 81.76 144.117 81.7099 145.449C81.7099 146.079 81.7099 146.573 81.7099 146.931C81.7099 147.088 81.7099 147.21 81.7099 147.31C81.6935 147.393 81.6645 147.473 81.624 147.547Z" fill="#E0E0E0"/>
<path d="M371.855 254.939H342.957V262.586H371.855V254.939Z" fill="#E0E0E0"/>
<path d="M392.633 239.237H363.735V246.884H392.633V239.237Z" fill="#EBEBEB"/>
<path d="M380.41 254.939C380.41 254.939 380.41 254.889 380.41 254.796V254.409C380.41 254.044 380.41 253.543 380.41 252.899C380.41 251.581 380.41 249.684 380.36 247.292L380.446 247.378L351.556 247.443C351.62 247.371 351.405 247.586 351.699 247.292V254.925L351.548 254.782L372.148 254.846L378.227 254.882H379.866H380.296H380.446H379.902H378.291L372.248 254.925L351.548 254.989H351.405V247.307L351.556 247.156L380.446 247.214H380.539V247.307C380.539 249.72 380.539 251.638 380.489 252.97C380.489 253.6 380.489 254.101 380.489 254.452C380.489 254.61 380.489 254.732 380.489 254.832C380.489 254.932 380.418 254.939 380.41 254.939Z" fill="#E0E0E0"/>
<path d="M148.635 211.557C148.632 211.509 148.632 211.461 148.635 211.413V211.02C148.635 210.662 148.635 210.16 148.635 209.516C148.635 208.199 148.635 206.301 148.592 203.91L148.678 203.996L119.78 204.053C119.844 203.988 119.637 204.203 119.93 203.91V207.776C119.93 209.058 119.93 210.311 119.93 211.542L119.787 211.392L140.379 211.463L146.458 211.499H148.105H148.534C148.584 211.494 148.635 211.494 148.685 211.499H148.141H146.53L140.479 211.542L119.787 211.607H119.572V203.924C119.866 203.63 119.651 203.838 119.715 203.774L148.613 203.831H148.706V203.924C148.706 206.337 148.663 208.22 148.656 209.588C148.656 210.218 148.656 210.712 148.656 211.07V211.449C148.651 211.485 148.644 211.521 148.635 211.557Z" fill="#E0E0E0"/>
<path d="M152.551 203.91C152.551 203.91 152.551 203.853 152.551 203.767C152.551 203.681 152.551 203.523 152.551 203.359C152.551 202.979 152.551 202.471 152.551 201.826C152.551 200.487 152.551 198.59 152.494 196.263L152.601 196.37L135.238 196.413L135.389 196.263V200.187C135.389 201.468 135.389 202.707 135.389 203.896L135.245 203.752L147.668 203.824L151.284 203.86H152.265H152.608C152.503 203.867 152.398 203.867 152.293 203.86H151.348L147.768 203.896L135.252 203.96H135.116V203.817C135.116 202.628 135.116 201.39 135.116 200.108V196.184L135.26 196.041H152.623H152.73V196.148C152.73 198.504 152.687 200.444 152.673 201.776C152.673 202.413 152.673 202.915 152.673 203.287C152.647 203.497 152.606 203.705 152.551 203.91Z" fill="#E0E0E0"/>
<path d="M501.794 337.071C501.794 337.171 395.497 337.257 264.404 337.257C133.312 337.257 26.9932 337.171 26.9932 337.071C26.9932 336.971 133.262 336.885 264.404 336.885C395.547 336.885 501.794 336.964 501.794 337.071Z" fill="#263238"/>
<path d="M476.591 310.457L481.188 328.722L488.992 342.111C489.126 342.34 489.211 342.594 489.243 342.857C489.274 343.12 489.251 343.386 489.175 343.64C489.099 343.894 488.972 344.13 488.801 344.332C488.631 344.535 488.42 344.7 488.183 344.818C487.911 344.957 487.609 345.03 487.302 345.03C486.996 345.03 486.694 344.957 486.422 344.818C482.913 342.928 470.054 335.904 469.796 334.55C469.488 332.982 463.66 315.612 463.66 315.612L476.591 310.457Z" fill="#7ABC51"/>
<g opacity="0.6">
<path d="M488.184 344.818L469.453 333.298L469.668 334.064C469.851 334.729 470.265 335.308 470.835 335.696C472.36 336.735 476.642 339.498 486.365 344.804C486.645 344.954 486.957 345.032 487.274 345.032C487.592 345.032 487.904 344.954 488.184 344.804V344.818Z" fill="white"/>
</g>
<g opacity="0.6">
<path d="M471.565 326.409C471.835 326.511 472.057 326.71 472.189 326.966C472.322 327.223 472.354 327.519 472.281 327.798C472.189 328.069 471.996 328.294 471.743 328.428C471.49 328.561 471.196 328.592 470.92 328.514C470.636 328.406 470.401 328.196 470.262 327.925C470.124 327.654 470.09 327.341 470.168 327.047C470.294 326.773 470.52 326.558 470.801 326.447C471.081 326.336 471.393 326.338 471.672 326.452" fill="white"/>
</g>
<path d="M481.868 338.03C482.153 337.344 482.561 336.715 483.071 336.176C483.663 335.726 484.337 335.395 485.055 335.202C485.055 335.152 484.79 335.073 484.339 335.13C483.763 335.225 483.226 335.482 482.79 335.869C482.354 336.257 482.037 336.761 481.876 337.321C481.747 337.751 481.797 338.03 481.868 338.03Z" fill="#263238"/>
<path d="M483.809 340.1C483.916 340.15 484.339 339.384 485.198 338.876C485.754 338.603 486.325 338.364 486.909 338.16C486.582 338.064 486.236 338.049 485.901 338.113C485.566 338.178 485.252 338.322 484.983 338.532C484.017 339.141 483.702 340.1 483.809 340.1Z" fill="#263238"/>
<path d="M478.575 335.582C479.725 334.029 481.302 332.844 483.115 332.174C482.112 332.249 481.151 332.611 480.347 333.214C479.542 333.818 478.928 334.64 478.575 335.582Z" fill="#263238"/>
<path d="M476.713 330.148C476.792 330.241 477.68 329.546 478.968 329.138C480.257 328.73 481.381 328.759 481.388 328.637C481.396 328.515 480.228 328.293 478.839 328.744C477.988 328.949 477.236 329.446 476.713 330.148Z" fill="#263238"/>
<path d="M475.224 324.82C475.944 324.344 476.727 323.97 477.551 323.71C478.401 323.573 479.265 323.552 480.121 323.646C480.121 323.603 479.878 323.431 479.405 323.302C478.767 323.149 478.101 323.149 477.463 323.302C476.825 323.455 476.232 323.757 475.732 324.183C475.345 324.512 475.188 324.784 475.224 324.82Z" fill="#263238"/>
<path d="M477.236 322.701C477.232 322.453 477.175 322.209 477.071 321.985C476.831 321.374 476.476 320.815 476.026 320.338C475.725 319.963 475.31 319.696 474.844 319.579C474.686 319.556 474.524 319.583 474.381 319.654C474.237 319.726 474.119 319.84 474.042 319.98C473.917 320.264 473.896 320.584 473.985 320.882C474.195 321.481 474.607 321.988 475.151 322.315C475.695 322.642 476.336 322.768 476.964 322.672C477.581 322.569 478.154 322.283 478.608 321.852C479.062 321.421 479.377 320.864 479.512 320.252C479.548 320.098 479.549 319.938 479.515 319.783C479.482 319.629 479.415 319.483 479.319 319.357C479.214 319.234 479.071 319.15 478.912 319.119C478.754 319.088 478.589 319.111 478.446 319.185C478.027 319.405 477.674 319.731 477.422 320.13C477.04 320.661 476.754 321.255 476.577 321.885C476.492 322.113 476.456 322.357 476.469 322.601C476.749 321.784 477.149 321.014 477.658 320.317C477.891 319.977 478.203 319.699 478.567 319.507C478.647 319.47 478.736 319.459 478.822 319.476C478.909 319.493 478.987 319.536 479.047 319.601C479.102 319.688 479.139 319.786 479.155 319.888C479.171 319.99 479.166 320.095 479.14 320.195C479.001 320.717 478.716 321.189 478.32 321.557C477.923 321.924 477.43 322.172 476.899 322.271C476.366 322.348 475.824 322.241 475.36 321.968C474.897 321.695 474.54 321.271 474.35 320.768C474.277 320.566 474.277 320.346 474.35 320.145C474.39 320.066 474.453 320.001 474.532 319.96C474.61 319.919 474.699 319.903 474.787 319.916C475.183 320.012 475.538 320.23 475.804 320.539C476.405 321.169 476.89 321.901 477.236 322.701Z" fill="#263238"/>
<path d="M415.073 313.343L416.09 328.679C416.09 328.679 400.825 333.749 400.731 336.606L430.567 336.82L429.966 312.849L415.073 313.343Z" fill="#7ABC51"/>
<g opacity="0.6">
<path d="M425.305 327.111C425.594 327.192 425.843 327.376 426.005 327.628C426.167 327.88 426.232 328.183 426.185 328.479C426.117 328.771 425.939 329.025 425.689 329.19C425.439 329.355 425.135 329.419 424.839 329.367C424.537 329.281 424.277 329.089 424.107 328.825C423.937 328.562 423.869 328.245 423.916 327.935C424.017 327.638 424.23 327.392 424.509 327.249C424.788 327.106 425.112 327.078 425.412 327.169" fill="white"/>
</g>
<g opacity="0.6">
<path d="M430.567 336.82L430.51 334.4L401.676 335.202C401.37 335.357 401.108 335.586 400.914 335.869C400.72 336.152 400.601 336.479 400.566 336.82H430.567Z" fill="white"/>
</g>
<path d="M415.603 328.544C415.603 328.694 416.319 328.737 417.035 329.181C417.751 329.625 418.166 330.226 418.302 330.169C418.438 330.112 418.187 329.274 417.3 328.737C416.412 328.2 415.567 328.415 415.603 328.544Z" fill="#263238"/>
<path d="M412.517 329.932C412.517 330.076 413.125 330.305 413.634 330.906C414.142 331.508 414.314 332.152 414.457 332.145C414.6 332.138 414.672 331.307 414.02 330.57C413.369 329.832 412.517 329.796 412.517 329.932Z" fill="#263238"/>
<path d="M410.856 333.735C410.985 333.735 411.164 333.019 410.77 332.239C410.376 331.458 409.682 331.157 409.624 331.279C409.567 331.401 409.997 331.816 410.34 332.468C410.684 333.119 410.706 333.721 410.856 333.735Z" fill="#263238"/>
<path d="M415.76 325.021C415.825 325.157 416.476 324.935 417.314 324.964C418.152 324.992 418.789 325.236 418.86 325.107C418.932 324.978 418.295 324.484 417.328 324.455C416.362 324.427 415.681 324.914 415.76 325.021Z" fill="#263238"/>
<g opacity="0.3">
<path d="M415.28 316.378L415.459 319.113L430.109 318.533L430.051 316.07L415.28 316.378Z" fill="black"/>
</g>
<path d="M415.609 321.928C416.104 322.042 416.621 322.022 417.106 321.87C417.64 321.758 418.159 321.582 418.652 321.348C418.946 321.207 419.228 321.044 419.497 320.861C419.663 320.766 419.811 320.642 419.934 320.496C420.026 320.39 420.081 320.256 420.088 320.116C420.096 319.976 420.057 319.838 419.977 319.722C419.901 319.623 419.804 319.543 419.692 319.489C419.58 319.434 419.457 319.406 419.333 319.407C419.143 319.412 418.955 319.443 418.774 319.5C418.459 319.59 418.152 319.707 417.858 319.851C417.358 320.091 416.901 320.41 416.504 320.796C415.831 321.455 415.617 322.006 415.667 322.035C415.717 322.064 416.053 321.613 416.741 321.061C417.142 320.744 417.583 320.48 418.051 320.274C418.327 320.154 418.612 320.056 418.903 319.98C419.211 319.894 419.483 319.88 419.569 320.016C419.655 320.152 419.569 320.095 419.569 320.188C419.473 320.289 419.365 320.378 419.247 320.453C418.57 320.92 417.826 321.282 417.041 321.527C416.555 321.627 416.077 321.761 415.609 321.928Z" fill="#263238"/>
<path d="M415.81 322.129C416.073 321.699 416.196 321.199 416.161 320.697C416.168 320.142 416.081 319.59 415.904 319.064C415.796 318.754 415.659 318.454 415.495 318.169C415.408 317.976 415.273 317.809 415.102 317.683C414.932 317.558 414.732 317.479 414.522 317.453C414.39 317.463 414.263 317.508 414.156 317.586C414.048 317.663 413.964 317.768 413.913 317.89C413.841 318.066 413.795 318.252 413.777 318.441C413.723 318.773 413.723 319.112 413.777 319.444C413.873 320.001 414.106 320.525 414.457 320.969C415.066 321.728 415.682 321.878 415.689 321.828C415.696 321.778 415.281 321.484 414.779 320.768C414.508 320.348 414.332 319.874 414.264 319.379C414.224 319.094 414.224 318.805 414.264 318.52C414.264 318.198 414.414 317.94 414.536 317.969C414.658 317.997 414.944 318.191 415.073 318.441C415.224 318.696 415.356 318.961 415.467 319.236C415.645 319.713 415.759 320.211 415.803 320.718C415.868 321.556 415.725 322.107 415.81 322.129Z" fill="#263238"/>
<path d="M415.001 179.58L460.453 179.236L482.42 323.51L463.553 325.902L439.381 207.275L432.142 326.324L432.121 326.682L411.722 326.324L415.001 179.58Z" fill="#263238"/>
<path d="M437.856 204.167C437.873 203.58 437.834 202.992 437.741 202.413C437.634 201.324 437.519 199.835 437.469 198.181C437.419 196.527 437.469 195.024 437.469 193.942C437.525 193.354 437.525 192.762 437.469 192.174C437.308 192.743 437.217 193.33 437.197 193.921C436.939 196.761 437.025 199.622 437.455 202.441C437.511 203.032 437.645 203.612 437.856 204.167Z" fill="#455A64"/>
<path d="M434.111 192.604C434.111 192.604 434.033 192.518 433.846 192.503C433.59 192.496 433.338 192.574 433.13 192.725C432.96 192.842 432.82 192.996 432.721 193.176C432.621 193.357 432.565 193.558 432.558 193.764C432.579 194.02 432.676 194.265 432.834 194.468C432.993 194.671 433.208 194.823 433.452 194.906C433.695 194.988 433.958 194.998 434.208 194.934C434.457 194.87 434.682 194.734 434.856 194.544C434.976 194.376 435.055 194.183 435.087 193.979C435.12 193.775 435.104 193.567 435.042 193.37C434.964 193.112 434.8 192.89 434.577 192.74C434.419 192.64 434.312 192.64 434.305 192.654C434.297 192.668 434.67 192.869 434.784 193.441C434.818 193.595 434.817 193.754 434.782 193.907C434.747 194.061 434.68 194.205 434.584 194.329C434.452 194.456 434.288 194.544 434.109 194.584C433.931 194.624 433.744 194.614 433.571 194.554C433.398 194.495 433.245 194.389 433.128 194.249C433.011 194.108 432.935 193.938 432.908 193.756C432.91 193.6 432.945 193.446 433.01 193.304C433.076 193.162 433.17 193.036 433.288 192.933C433.689 192.539 434.111 192.654 434.111 192.604Z" fill="#455A64"/>
<path d="M445.753 189.682C445.753 189.682 445.882 189.84 446.168 190.062C446.571 190.377 447.006 190.651 447.464 190.878C448.149 191.223 448.869 191.492 449.612 191.68C450.516 191.906 451.444 192.023 452.376 192.031C453.31 192.022 454.239 191.907 455.147 191.687C455.89 191.497 456.611 191.225 457.295 190.878C457.753 190.653 458.187 190.382 458.591 190.069C458.87 189.847 459.02 189.711 459.006 189.689C458.992 189.668 458.333 190.119 457.18 190.642C456.505 190.945 455.802 191.185 455.082 191.358C453.314 191.773 451.474 191.773 449.705 191.358C448.983 191.191 448.28 190.951 447.607 190.642C446.426 190.112 445.796 189.625 445.753 189.682Z" fill="#455A64"/>
<path d="M417.614 192.74C418.007 192.912 418.431 193.003 418.86 193.005C420.939 193.159 423.006 192.568 424.688 191.337C425.05 191.108 425.362 190.809 425.605 190.456C423.306 192.161 420.467 192.973 417.614 192.74Z" fill="#455A64"/>
<path d="M475.223 324.82C475.172 324.721 475.129 324.618 475.095 324.512C475.03 324.305 474.937 323.982 474.837 323.56C474.636 322.715 474.364 321.462 474.035 319.837C473.39 316.593 472.503 311.896 471.443 306.075C469.295 294.44 466.503 278.352 463.388 260.573C460.273 242.795 457.431 226.721 455.383 215.057C454.331 209.251 453.479 204.546 452.891 201.274C452.584 199.663 452.347 198.41 452.175 197.53C452.089 197.114 452.025 196.814 451.982 196.556L451.903 196.227C451.903 196.227 451.903 196.341 451.939 196.563C451.975 196.785 452.032 197.129 452.097 197.544C452.247 198.418 452.455 199.692 452.734 201.296C453.292 204.575 454.101 209.286 455.104 215.1L462.98 260.638C466.087 278.416 468.958 294.498 471.142 306.125C472.231 311.939 473.154 316.636 473.849 319.865C474.543 323.095 475.087 324.877 475.223 324.82Z" fill="#455A64"/>
<path d="M417.292 323.195C417.292 323.195 417.292 323.08 417.292 322.858C417.292 322.636 417.292 322.3 417.292 321.884C417.292 321.011 417.292 319.736 417.292 318.132C417.292 316.529 417.292 314.502 417.357 312.19C417.421 309.877 417.407 307.235 417.485 304.314C417.6 298.485 417.822 291.547 418.158 283.85C418.495 276.153 419.003 267.69 419.655 258.826C420.306 249.962 421.087 241.513 421.91 233.845C422.734 226.177 423.543 219.289 424.302 213.503C424.66 210.639 425.018 208.004 425.34 205.706C425.662 203.408 425.934 201.41 426.17 199.828C426.407 198.245 426.571 196.964 426.693 196.112C426.75 195.696 426.793 195.396 426.822 195.138C426.829 195.028 426.829 194.918 426.822 194.809C426.822 194.809 426.822 194.916 426.758 195.138C426.693 195.36 426.657 195.689 426.593 196.097C426.45 196.964 426.249 198.21 425.999 199.806C425.748 201.403 425.433 203.386 425.104 205.677C424.774 207.969 424.388 210.582 424.008 213.475C423.221 219.253 422.376 226.141 421.538 233.809C420.7 241.477 419.927 249.919 419.254 258.798C418.581 267.676 418.123 276.132 417.786 283.858C417.45 291.583 417.271 298.5 417.192 304.335C417.135 307.249 417.135 309.884 417.113 312.211C417.092 314.538 417.113 316.507 417.113 318.154C417.113 319.801 417.113 321.018 417.113 321.906C417.113 322.321 417.113 322.622 417.113 322.88C417.113 323.137 417.292 323.195 417.292 323.195Z" fill="#455A64"/>
<path d="M370.294 123.968L398.698 132.259L414.607 122.865L426.679 137.185L404.161 146.937C402.569 147.626 400.845 147.954 399.112 147.897C397.379 147.84 395.68 147.4 394.137 146.608L366.213 132.288L370.294 123.968Z" fill="#FFBE9D"/>
<path d="M363.814 121.233L360.299 119.407L350.518 114.316C350.344 114.246 350.152 114.232 349.969 114.276C349.786 114.32 349.621 114.419 349.497 114.56C349.373 114.702 349.295 114.878 349.276 115.065C349.256 115.252 349.295 115.441 349.387 115.605L355.623 120.732L352.988 121.72C352.47 121.919 352.043 122.305 351.793 122.801L350.411 125.557C350.411 125.557 348.821 125.729 348.664 126.753C348.506 127.777 349.695 128.142 349.695 128.142L349.394 129.345C349.326 129.622 349.316 129.911 349.367 130.193C349.417 130.474 349.527 130.741 349.688 130.977C351.198 131.6 352.401 128.429 352.401 128.429L354.019 128.6L355.781 132.18C358.022 132.725 356.962 129.187 356.962 129.187L357.95 129.438C358.938 129.682 359.454 130.383 360.993 131.171C362.533 131.958 365.547 132.238 365.547 132.238L367.781 133.884L374.583 124.584L363.814 121.233Z" fill="#FAFAFA"/>
<path d="M363.814 121.233L364.008 121.268L364.559 121.426L366.707 122.063L374.64 124.483L374.805 124.533L374.697 124.669L367.96 133.977L367.86 134.113L367.731 134.013L365.49 132.374H365.576C364.067 132.258 362.582 131.93 361.165 131.4C360.453 131.049 359.773 130.637 359.132 130.168C358.821 129.944 358.482 129.763 358.122 129.631C357.757 129.531 357.349 129.438 356.962 129.338L357.177 129.109C357.375 129.767 357.458 130.455 357.42 131.142C357.412 131.338 357.364 131.53 357.281 131.707C357.197 131.884 357.079 132.042 356.934 132.173C356.763 132.279 356.572 132.347 356.374 132.374C356.175 132.401 355.973 132.387 355.781 132.331H355.702L355.659 132.245C355.101 131.113 354.499 129.911 353.891 128.665L354.041 128.772L352.609 128.622H352.408L352.602 128.507C352.376 129.076 352.085 129.616 351.735 130.118C351.575 130.397 351.36 130.641 351.103 130.834C350.846 131.028 350.552 131.166 350.239 131.242H349.981C349.895 131.242 349.816 131.199 349.731 131.178H349.673H349.637C349.637 131.178 349.48 131.049 349.552 131.113L349.487 131.013L349.38 130.798C349.252 130.507 349.186 130.193 349.186 129.875C349.203 129.571 349.256 129.271 349.344 128.98L349.552 128.142L349.688 128.371C349.3 128.272 348.959 128.041 348.721 127.72C348.609 127.549 348.538 127.355 348.513 127.153C348.488 126.95 348.51 126.745 348.578 126.553C348.733 126.189 349.019 125.898 349.38 125.736C349.709 125.578 350.062 125.474 350.425 125.428L350.282 125.529L351.155 123.789L351.592 122.937C351.725 122.628 351.917 122.348 352.158 122.113C352.401 121.88 352.692 121.702 353.01 121.591L353.876 121.261L355.573 120.617L355.523 120.91L349.301 115.762C349.193 115.567 349.15 115.343 349.177 115.122C349.204 114.901 349.3 114.694 349.451 114.531C349.596 114.375 349.784 114.267 349.991 114.221C350.198 114.175 350.415 114.193 350.611 114.273L360.306 119.393L362.934 120.825L363.614 121.204C363.696 121.242 363.773 121.29 363.843 121.347C363.76 121.317 363.678 121.281 363.599 121.24L362.883 120.903L360.206 119.557L350.461 114.545C350.317 114.488 350.159 114.476 350.008 114.511C349.858 114.545 349.721 114.625 349.616 114.739C349.509 114.859 349.442 115.01 349.424 115.17C349.406 115.33 349.438 115.492 349.516 115.634V115.591L355.766 120.703L355.988 120.889L355.716 120.989L354.027 121.641L353.16 121.97C352.894 122.072 352.651 122.225 352.444 122.421C352.236 122.626 352.068 122.869 351.95 123.137L351.521 123.989L350.647 125.729L350.604 125.815H350.504C349.902 125.901 349.172 126.159 348.964 126.703C348.918 126.841 348.903 126.988 348.921 127.133C348.938 127.278 348.987 127.417 349.065 127.541C349.255 127.784 349.518 127.96 349.816 128.042L349.995 128.092L349.953 128.264L349.745 129.101C349.662 129.361 349.613 129.631 349.602 129.903C349.6 130.169 349.654 130.433 349.759 130.677L349.852 130.849L349.902 130.934C349.981 130.992 349.802 130.849 349.824 130.863H349.867C349.925 130.881 349.985 130.896 350.046 130.906H350.225C350.747 130.759 351.189 130.411 351.456 129.939C351.787 129.462 352.061 128.948 352.272 128.407L352.33 128.271H352.466H352.666L354.098 128.421H354.206L354.249 128.507C354.85 129.732 355.451 130.934 356.01 132.087L355.888 131.994C356.028 132.037 356.175 132.05 356.32 132.034C356.465 132.018 356.606 131.973 356.733 131.901C356.944 131.695 357.068 131.415 357.077 131.121C357.112 130.484 357.035 129.847 356.848 129.238L356.769 128.93L357.07 129.008C357.471 129.109 357.843 129.195 358.258 129.309C358.65 129.451 359.018 129.649 359.354 129.896C359.979 130.353 360.643 130.755 361.337 131.099C362.717 131.617 364.163 131.94 365.633 132.059H365.676H365.712L367.946 133.713L367.716 133.748C370.301 130.233 372.614 127.097 374.518 124.498L374.583 124.691L366.707 122.156L364.602 121.44L364.058 121.254L363.814 121.233Z" fill="#263238"/>
<path d="M357.22 129.238C357.22 129.274 356.439 129.138 355.115 128.944C353.79 128.751 351.914 128.508 349.709 128.321H349.745C349.541 128.322 349.34 128.272 349.161 128.176C348.981 128.08 348.828 127.942 348.715 127.772C348.602 127.602 348.533 127.408 348.514 127.205C348.495 127.002 348.527 126.798 348.606 126.61C348.781 126.247 349.046 125.936 349.376 125.704C349.705 125.472 350.089 125.328 350.489 125.285C351.334 125.149 352.107 125.106 352.866 124.97C353.625 124.834 354.356 124.698 355.014 124.519C355.673 124.34 356.346 124.154 356.94 123.954C357.215 123.879 357.472 123.748 357.692 123.567C357.781 123.496 357.843 123.398 357.87 123.288C357.898 123.178 357.888 123.062 357.842 122.958C357.728 122.748 357.575 122.561 357.391 122.407L356.912 121.92C356.611 121.612 356.353 121.362 356.131 121.161C355.687 120.768 355.415 120.603 355.415 120.574C355.715 120.682 355.992 120.845 356.231 121.054C356.521 121.277 356.798 121.516 357.062 121.77L357.563 122.235C357.781 122.402 357.961 122.611 358.093 122.851C358.163 123.006 358.181 123.18 358.145 123.346C358.109 123.512 358.02 123.663 357.893 123.775C357.65 123.993 357.361 124.155 357.048 124.247C356.446 124.462 355.802 124.67 355.107 124.856C354.413 125.042 353.675 125.2 352.916 125.328C352.157 125.457 351.327 125.522 350.546 125.651C350.207 125.68 349.882 125.795 349.6 125.986C349.318 126.176 349.089 126.435 348.935 126.739C348.877 126.869 348.852 127.011 348.86 127.154C348.869 127.296 348.913 127.434 348.987 127.555C349.06 127.677 349.163 127.779 349.285 127.853C349.407 127.926 349.545 127.969 349.687 127.978C351.907 128.192 353.783 128.479 355.1 128.737C355.759 128.866 356.282 128.98 356.632 129.073C356.836 129.096 357.034 129.151 357.22 129.238Z" fill="#263238"/>
<path d="M356.962 124.219C356.373 124.478 355.723 124.564 355.086 124.47C354.754 124.457 354.423 124.414 354.098 124.341L354.27 124.241C354.055 124.727 353.883 125.035 353.819 125.014C353.754 124.992 353.819 124.641 353.969 124.133L354.005 124.019H354.141L355.108 124.083C355.729 124.064 356.35 124.11 356.962 124.219Z" fill="#263238"/>
<path d="M421.087 112.462L402.786 126.503L415.617 143.4L431.269 134.515L421.087 112.462Z" fill="#7ABC51"/>
<path d="M421.087 112.462C423.737 110.836 432.894 108.824 432.894 108.824L450.608 106.898L465.973 113.951L459.673 140.393L465.2 190.248L412.467 193.112L421.087 112.462Z" fill="#7ABC51"/>
<path d="M451.194 134.579H442.108V137.028H451.194V134.579Z" fill="#FAFAFA"/>
<path d="M451.209 137.049H442.087V134.564H451.209V137.049ZM442.123 137.049H451.173V134.607H442.123V137.049Z" fill="#263238"/>
<path d="M418.861 127.762C418.645 126.42 418.556 125.061 418.595 123.703C418.514 122.346 418.552 120.985 418.71 119.636C418.925 120.978 419.014 122.337 418.975 123.695C419.058 125.052 419.019 126.413 418.861 127.762Z" fill="#263238"/>
<path d="M452.104 82.6337L450.164 110.092C450.004 112.249 449.036 114.266 447.454 115.74C445.872 117.215 443.792 118.039 441.629 118.047C440.459 118.042 439.302 117.799 438.23 117.331C437.157 116.864 436.191 116.182 435.391 115.328C434.592 114.474 433.975 113.465 433.579 112.364C433.182 111.263 433.015 110.093 433.087 108.925C433.259 106.312 433.41 104.178 433.41 104.178C433.41 104.178 426.765 103.14 426.686 96.4954C426.636 92.6577 427.302 83.944 427.868 77.278C428.051 75.1014 429.046 73.0732 430.654 71.5957C432.263 70.1183 434.368 69.2995 436.553 69.3018H440.57C442.21 69.3981 443.815 69.8221 445.288 70.5489C446.762 71.2756 448.076 72.2903 449.151 73.5331C450.226 74.7758 451.041 76.2214 451.549 77.7845C452.056 79.3475 452.245 80.9964 452.104 82.6337Z" fill="#FFBE9D"/>
<path d="M433.402 104.077C436.471 104.136 439.487 103.278 442.066 101.614C442.066 101.614 440.018 106.397 433.388 105.803L433.402 104.077Z" fill="#EB996E"/>
<path d="M429.221 85.6694C429.217 85.9165 429.31 86.1552 429.48 86.3346C429.65 86.5139 429.883 86.6195 430.13 86.6289C430.251 86.6396 430.373 86.6259 430.488 86.5885C430.604 86.5512 430.71 86.4909 430.802 86.4114C430.893 86.3318 430.968 86.2346 431.021 86.1256C431.074 86.0166 431.105 85.898 431.111 85.7768C431.113 85.5291 431.019 85.2904 430.847 85.1112C430.676 84.9321 430.442 84.8267 430.195 84.8174C430.074 84.8077 429.953 84.8221 429.839 84.86C429.724 84.8978 429.618 84.9582 429.528 85.0377C429.437 85.1171 429.363 85.214 429.31 85.3225C429.258 85.431 429.227 85.549 429.221 85.6694Z" fill="#263238"/>
<path d="M429.013 83.9367C429.127 84.0656 429.851 83.5286 430.867 83.5358C431.884 83.5429 432.636 84.0441 432.75 83.9224C432.865 83.8007 432.686 83.6432 432.357 83.4069C431.915 83.1014 431.39 82.9389 430.853 82.9415C430.32 82.9368 429.8 83.1052 429.371 83.4212C429.063 83.6575 428.956 83.8866 429.013 83.9367Z" fill="#263238"/>
<path d="M439.037 85.6766C439.035 85.9236 439.13 86.1616 439.301 86.3395C439.473 86.5175 439.707 86.6214 439.954 86.6289C440.074 86.6386 440.195 86.6241 440.309 86.5863C440.424 86.5484 440.53 86.488 440.621 86.4086C440.711 86.3291 440.785 86.2323 440.838 86.1238C440.891 86.0153 440.921 85.8973 440.927 85.7768C440.929 85.5303 440.836 85.2926 440.666 85.1136C440.497 84.9347 440.264 84.8285 440.018 84.8174C439.897 84.8076 439.775 84.8223 439.66 84.8605C439.544 84.8987 439.438 84.9596 439.346 85.0397C439.255 85.1199 439.18 85.2175 439.127 85.3269C439.074 85.4363 439.043 85.5552 439.037 85.6766Z" fill="#263238"/>
<path d="M439.052 84.1293C439.166 84.251 439.89 83.7212 440.906 83.7212C441.923 83.7212 442.675 84.2367 442.789 84.115C442.904 83.9933 442.725 83.8358 442.396 83.5923C441.955 83.2863 441.429 83.1261 440.892 83.1341C440.36 83.1309 439.841 83.2963 439.41 83.6066C439.102 83.8501 438.995 84.072 439.052 84.1293Z" fill="#263238"/>
<path d="M435.436 91.4471C434.899 91.2813 434.344 91.1827 433.782 91.1536C433.517 91.1536 433.274 91.0748 433.231 90.8958C433.205 90.6263 433.265 90.3555 433.403 90.1225C433.646 89.4924 433.904 88.8266 434.176 88.1392C435.243 85.311 436.023 82.984 435.909 82.941C435.794 82.8981 434.828 85.1535 433.761 87.953C433.503 88.669 433.252 89.3206 433.045 89.9507C432.879 90.2648 432.83 90.628 432.909 90.9746C432.947 91.0669 433.005 91.1495 433.08 91.2163C433.154 91.2832 433.242 91.3327 433.338 91.3612C433.483 91.3992 433.632 91.4184 433.782 91.4185C434.33 91.5033 434.886 91.5129 435.436 91.4471Z" fill="#263238"/>
<path d="M438.787 80.5855C438.887 80.8648 439.903 80.7359 441.106 80.8791C442.309 81.0223 443.254 81.3517 443.433 81.1011C443.505 80.9793 443.333 80.7216 442.939 80.4495C442.418 80.1202 441.828 79.9142 441.215 79.8472C440.603 79.7802 439.982 79.854 439.402 80.0629C438.965 80.2347 438.744 80.4567 438.787 80.5855Z" fill="#263238"/>
<path d="M429.02 81.9314C429.199 82.1677 429.908 81.9314 430.753 81.9314C431.597 81.9314 432.314 82.0817 432.478 81.8383C432.55 81.7237 432.435 81.4946 432.127 81.2727C431.707 81.0097 431.217 80.8775 430.722 80.8928C430.226 80.9081 429.746 81.0702 429.342 81.3586C429.041 81.5805 428.941 81.824 429.02 81.9314Z" fill="#263238"/>
<path d="M449.863 87.6236C449.978 87.5734 454.431 86.2703 454.288 90.8169C454.145 95.3635 449.605 94.2752 449.605 94.1463C449.605 94.0175 449.863 87.6236 449.863 87.6236Z" fill="#FFBE9D"/>
<path d="M451.08 92.471C451.08 92.471 451.159 92.5283 451.295 92.5928C451.388 92.6317 451.488 92.6518 451.589 92.6518C451.689 92.6518 451.789 92.6317 451.882 92.5928C452.182 92.4171 452.43 92.1646 452.6 91.8613C452.77 91.5579 452.856 91.2148 452.849 90.8672C452.871 90.4786 452.808 90.0899 452.663 89.7287C452.624 89.5847 452.551 89.4522 452.45 89.3424C452.349 89.2327 452.223 89.1491 452.083 89.0987C451.993 89.0715 451.897 89.0767 451.81 89.1134C451.724 89.15 451.653 89.2157 451.61 89.2991C451.546 89.428 451.574 89.5211 451.546 89.5283C451.517 89.5354 451.453 89.4495 451.496 89.2562C451.525 89.1469 451.59 89.0508 451.682 88.9841C451.81 88.892 451.969 88.8535 452.126 88.8767C452.309 88.919 452.478 89.0067 452.618 89.1319C452.759 89.257 452.865 89.4155 452.928 89.5927C453.111 89.9938 453.192 90.4342 453.164 90.8743C453.172 91.2785 453.061 91.676 452.845 92.0173C452.628 92.3587 452.316 92.6285 451.947 92.7932C451.824 92.8255 451.696 92.8293 451.572 92.8045C451.448 92.7797 451.331 92.7269 451.231 92.65C451.08 92.5784 451.03 92.4782 451.08 92.471Z" fill="#EB996E"/>
<path d="M452.39 87.4659C451.959 87.4375 451.527 87.5271 451.143 87.7251C450.758 87.9232 450.434 88.2221 450.207 88.59C449.906 89.2416 449.841 89.9719 449.548 90.6235C449.431 90.9611 449.205 91.2501 448.905 91.4447C448.606 91.6393 448.25 91.7282 447.894 91.6975C447.66 91.6201 447.451 91.484 447.285 91.3021C447.12 91.1203 447.004 90.8989 446.949 90.6593C446.852 90.1748 446.852 89.676 446.949 89.1915C447.214 87.0435 447.665 84.9671 447.751 82.8334C447.923 80.6859 447.455 78.5355 446.405 76.6543C445.871 75.7231 445.095 74.9534 444.16 74.4266C443.225 73.8998 442.165 73.6354 441.092 73.6614C439.66 73.776 438.385 74.5135 436.982 74.7139C436.147 74.822 435.298 74.7396 434.5 74.473C433.701 74.2064 432.974 73.7625 432.371 73.1745C432.097 72.9508 431.81 72.7428 431.512 72.5516C431.525 72.0382 431.69 71.5402 431.984 71.1196C434.77 68.542 439.782 67.826 443.44 68.7497C445.309 69.21 447.055 70.0716 448.557 71.2747C450.06 72.4777 451.282 73.9934 452.14 75.7163C453.722 79.1603 453.257 83.9575 452.383 87.4373" fill="#263238"/>
<path d="M427.789 76.2466C427.789 76.2466 445.224 70.6403 452.77 85.7264C452.77 85.7264 453.894 81.946 453.894 79.9268C453.894 78.5736 453.085 70.5258 444.808 67.9911C444.808 68.0198 432.329 63.2297 427.789 76.2466Z" fill="#7ABC51"/>
<path d="M442.775 76.6119C442.465 77.1114 442.044 77.5322 441.544 77.8411C441.044 78.15 440.479 78.3386 439.894 78.3921C439.309 78.4456 438.719 78.3624 438.172 78.1491C437.624 77.9359 437.134 77.5984 436.739 77.1632C436.564 77.5956 436.258 77.9626 435.865 78.2132C435.471 78.4637 435.01 78.5852 434.544 78.5608C434.078 78.5363 433.631 78.3672 433.266 78.0769C432.901 77.7865 432.636 77.3896 432.507 76.9412C432.034 77.4683 431.456 77.8902 430.81 78.1799C430.485 78.317 430.125 78.3513 429.78 78.2784C429.434 78.2055 429.119 78.0287 428.877 77.7718C428.681 77.4697 428.587 77.1125 428.609 76.7529C428.63 76.3933 428.767 76.0502 428.999 75.7742C429.47 75.2286 430.078 74.8184 430.76 74.5856C432.826 73.6765 435.097 73.3307 437.34 73.5832C439.595 73.8529 441.661 74.978 443.111 76.7264" fill="#263238"/>
<g opacity="0.4">
<path d="M427.789 76.2466C429.243 74.7217 431.233 73.8208 433.338 73.7334C438.479 73.5043 448.102 76.397 452.77 85.7264C452.77 85.7264 453.894 81.946 453.894 79.9268C453.894 78.5736 453.085 70.5258 444.808 67.9911C444.808 68.0198 432.329 63.2297 427.789 76.2466Z" fill="black"/>
</g>
<path d="M452.039 83.9581C449.394 80.0196 445.928 76.7002 441.879 74.2277C437.877 71.7217 431.247 69.2157 426.679 68.0343C425.327 67.5914 423.897 67.4425 422.483 67.5975C421.775 67.6902 421.107 67.9804 420.556 68.4351C420.005 68.8897 419.594 69.4902 419.368 70.168C418.939 71.8864 421.989 74.5427 423.428 75.5881C424.834 76.5257 426.289 77.3862 427.788 78.1657C427.788 78.1657 427.753 74.9723 432.865 74.3136C439.817 73.3971 452.039 83.9581 452.039 83.9581Z" fill="#7ABC51"/>
<path d="M437.741 70.9262C436.174 70.0892 434.482 69.5113 432.729 69.215C433.151 68.8868 433.61 68.6104 434.097 68.3916C435.467 68.6202 436.792 69.0674 438.021 69.7162L437.741 70.9262Z" fill="#E0E0E0"/>
<path d="M359.253 185.2V127.14H440.011V185.2L397.208 185.558L359.253 185.2Z" fill="#7ABC51"/>
<g opacity="0.4">
<path d="M440.018 127.14H359.253V185.2H440.018V127.14Z" fill="black"/>
</g>
<path d="M397.208 185.558L359.253 185.2V127.14H397.086L397.208 185.558Z" fill="#7ABC51"/>
<path d="M379.717 127.14H374.684V137.214H379.717V127.14Z" fill="#263238"/>
<path d="M371.969 172.384H361.945V182.408H371.969V172.384Z" fill="#FAFAFA"/>
<path d="M371.991 182.429H361.924V172.405H371.991V182.429ZM361.967 182.429H371.955V172.405H361.967V182.429Z" fill="#263238"/>
<path d="M458.913 140.472L460.581 153.983L435.521 168.854L439.417 177.446L467.899 165.94C471.35 164.186 474.3 161.594 474.057 157.713L472.689 138.804L458.913 140.472Z" fill="#FFBE9D"/>
<path d="M465.973 113.951C468.408 116.041 470.026 118.925 470.541 122.092C471.501 127.326 474.759 141.961 474.759 141.961L457.575 143.995V139.971C457.575 139.913 455.971 132.424 455.971 132.424L459.171 122.092L465.973 113.951Z" fill="#7ABC51"/>
<path d="M474.078 142.026C473.693 142.126 473.3 142.196 472.904 142.233L469.689 142.677C466.976 143.035 463.245 143.508 459.064 144.002L457.632 144.174H457.438V143.973C457.152 140.143 456.837 136.742 456.608 134.293C456.493 133.119 456.4 132.145 456.329 131.429C456.278 131.078 456.257 130.724 456.264 130.369C456.363 130.711 456.43 131.061 456.465 131.414C456.572 132.088 456.701 133.068 456.859 134.278C457.152 136.72 457.517 140.128 457.811 143.966L457.603 143.794L459.035 143.622C463.188 143.121 466.911 142.691 469.675 142.405L472.904 142.076C473.293 142.026 473.686 142.01 474.078 142.026Z" fill="#263238"/>
<path d="M464.562 114.896C464.562 114.954 463.939 115.219 462.987 115.806C460.493 117.341 458.556 119.635 457.459 122.35C457.037 123.388 456.887 124.076 456.822 124.061C456.852 123.443 456.982 122.833 457.209 122.257C458.205 119.41 460.217 117.032 462.858 115.577C463.384 115.256 463.96 115.026 464.562 114.896Z" fill="#263238"/>
<path d="M435.135 168.103L431.455 169.785L429.88 169.177L421.846 168.675L416.834 169.785L416.691 170.072C416.691 172.799 421.853 171.726 423.436 172.155C425.018 172.585 423.579 175.957 423.579 175.957C423.579 175.957 416.476 185.215 415.238 187.413C414.622 188.523 414.822 189.131 415.18 189.468C415.365 189.627 415.599 189.718 415.842 189.726C416.086 189.734 416.325 189.658 416.519 189.511L419.14 187.656C419.14 187.656 426.357 188.079 426.851 187.835C427.537 187.319 428.13 186.689 428.605 185.974C432.028 182.691 435.862 179.865 440.011 177.568L435.135 168.103Z" fill="#FAFAFA"/>
<path d="M435.135 168.103C435.135 168.103 435.135 168.145 435.228 168.246C435.321 168.346 435.378 168.525 435.486 168.718L436.467 170.566C437.333 172.22 438.579 174.582 440.125 177.518L440.175 177.625L440.068 177.683C435.931 180.008 432.112 182.857 428.705 186.16C428.249 186.861 427.68 187.483 427.022 188C426.914 188.07 426.792 188.114 426.664 188.129H426.342H425.698H424.416C422.691 188.086 420.915 188.007 419.096 187.907L419.211 187.871L417.528 189.024L416.669 189.64C416.507 189.766 416.318 189.853 416.117 189.894C415.916 189.935 415.708 189.929 415.509 189.876C415.305 189.818 415.12 189.707 414.974 189.553C414.828 189.4 414.726 189.209 414.679 189.003C414.605 188.608 414.655 188.2 414.822 187.835C415.153 187.17 415.546 186.537 415.996 185.945C418.488 182.365 421.058 179 423.457 175.85V175.885C423.655 175.401 423.811 174.9 423.922 174.389C424.051 173.91 424.071 173.409 423.979 172.921C423.932 172.709 423.804 172.524 423.621 172.406C423.412 172.309 423.186 172.256 422.956 172.248C422.462 172.198 421.953 172.205 421.459 172.198C420.474 172.229 419.488 172.162 418.516 171.998C418.027 171.908 417.566 171.704 417.17 171.403C416.984 171.235 416.835 171.029 416.733 170.8C416.63 170.571 416.577 170.323 416.576 170.072V170.036L416.719 169.749V169.685H416.791L421.803 168.597H421.846L429.872 169.141L431.447 169.764H431.39L434.161 168.546L434.877 168.239L435.106 168.153L434.863 168.282L434.147 168.625L431.447 169.907H431.412L429.829 169.313L421.796 168.854H421.831L416.819 169.986L416.92 169.907L416.777 170.193V170.122C416.779 170.327 416.825 170.53 416.91 170.718C416.995 170.905 417.118 171.073 417.271 171.21C417.626 171.478 418.041 171.655 418.481 171.725C419.427 171.883 420.386 171.945 421.345 171.912C421.846 171.912 422.347 171.912 422.87 171.955C423.152 171.966 423.43 172.034 423.686 172.155C423.942 172.32 424.126 172.576 424.201 172.871C424.313 173.416 424.298 173.979 424.158 174.518C424.041 175.051 423.878 175.573 423.672 176.079C421.28 179.236 418.717 182.587 416.232 186.167C415.812 186.745 415.443 187.358 415.13 188C414.994 188.295 414.949 188.624 415.001 188.945C415.035 189.088 415.105 189.219 415.206 189.326C415.306 189.433 415.433 189.511 415.574 189.554C415.719 189.591 415.871 189.593 416.018 189.561C416.165 189.528 416.302 189.462 416.419 189.368L417.285 188.752L418.989 187.549L419.039 187.513H419.104C420.915 187.614 422.683 187.699 424.409 187.75H425.684H426.306H426.607C426.686 187.741 426.762 187.714 426.829 187.671C427.445 187.178 427.979 186.591 428.412 185.931C431.848 182.64 435.699 179.812 439.868 177.518L439.817 177.683L436.316 170.73C435.915 169.921 435.6 169.298 435.371 168.833L435.128 168.332L435.135 168.103Z" fill="#263238"/>
<path d="M425.927 181.441C424.888 182.577 423.781 183.648 422.612 184.649C421.674 185.515 420.815 186.289 420.192 186.84C419.871 187.163 419.513 187.447 419.125 187.685C420.094 186.482 421.175 185.375 422.354 184.377C423.443 183.28 424.64 182.296 425.927 181.441Z" fill="#263238"/>
<path d="M428.111 183.231C427.553 184.175 426.85 185.025 426.028 185.752C425.303 186.574 424.473 187.296 423.558 187.9C424.214 187.029 424.952 186.223 425.763 185.494C426.489 184.683 427.274 183.927 428.111 183.231Z" fill="#263238"/>
<path opacity="0.3" d="M436.421 95.5882L432.11 95.6047C432.222 96.1414 432.504 96.6274 432.915 96.9905C433.326 97.3535 433.843 97.574 434.39 97.6192C435.44 97.6625 436.241 96.6215 436.421 95.5882Z" fill="black"/>
<path d="M432.752 96.8393C433.196 96.8618 434.474 96.6571 434.848 95.5984L432.11 95.6051C432.187 96.0744 432.411 96.5069 432.752 96.8393Z" fill="#F28F8F"/>
<path d="M90.4737 320.661C91.0751 318.334 89.55 315.992 87.8388 314.303C86.1275 312.613 84.0798 311.102 83.1919 308.868C81.7599 305.245 83.686 300.563 81.2229 297.541C79.7909 295.765 77.1775 295.171 75.8959 293.245C75.3036 292.197 74.9103 291.049 74.736 289.858C73.3636 283.84 70.3957 278.302 66.144 273.827C65.8576 279.186 67.0174 284.522 69.502 289.278C70.5044 291.176 71.7288 293.023 72.0581 295.142C72.5951 298.579 70.6691 302.123 71.514 305.503C72.4806 309.369 76.8267 311.947 77.0272 315.928C77.2062 319.293 74.2706 322.243 74.4925 325.601C74.6688 327.03 75.1817 328.397 75.989 329.589C78.588 333.885 82.433 336.885 88.161 336.792L95.2494 337.036L90.4737 320.661Z" fill="#7ABC51"/>
<g opacity="0.3">
<path d="M90.4737 320.661C91.0751 318.334 89.55 315.992 87.8388 314.303C86.1275 312.613 84.0798 311.102 83.1919 308.868C81.7599 305.245 83.686 300.563 81.2229 297.541C79.7909 295.765 77.1775 295.171 75.8959 293.245C75.3036 292.197 74.9103 291.049 74.736 289.858C73.3636 283.84 70.3957 278.302 66.144 273.827C65.8576 279.186 67.0174 284.522 69.502 289.278C70.5044 291.176 71.7288 293.023 72.0581 295.142C72.5951 298.579 70.6691 302.123 71.514 305.503C72.4806 309.369 76.8267 311.947 77.0272 315.928C77.2062 319.293 74.2706 322.243 74.4925 325.601C74.6688 327.03 75.1817 328.397 75.989 329.589C78.588 333.885 82.433 336.885 88.161 336.792L95.2494 337.036L90.4737 320.661Z" fill="black"/>
</g>
<path d="M96.7458 337.237C97.3926 337.349 98.0538 337.349 98.7005 337.237C99.4861 337.119 100.258 336.925 101.006 336.657C102.041 336.3 103.009 335.772 103.87 335.096C104.384 334.682 104.785 334.145 105.037 333.535C105.256 332.84 105.369 332.116 105.374 331.387C105.384 330.621 105.439 329.856 105.538 329.096C105.679 328.286 105.973 327.511 106.405 326.812C107.242 325.344 108.631 323.948 109.075 321.964C109.519 319.981 109.211 317.883 108.882 315.75C108.553 313.616 108.238 311.303 109.047 309.091C109.856 306.878 111.367 304.866 112.14 302.367C112.913 299.869 112.555 297.134 112.72 294.456C112.769 293.096 113.083 291.758 113.643 290.518C114.216 289.265 115.011 288.076 115.634 286.759C116.894 284.088 117.116 281.031 117.46 278.095C117.622 276.596 117.791 275.086 117.968 273.563C118.069 272.028 118.333 270.509 118.756 269.031C119.232 267.534 119.799 266.069 120.453 264.641C120.79 263.902 121.065 263.135 121.276 262.35C121.394 261.541 121.471 260.726 121.505 259.909C121.58 258.271 121.515 256.631 121.312 255.004C121.118 253.364 120.825 251.746 120.653 250.107C120.653 250.006 120.653 249.913 120.653 249.82L120.617 249.498L120.324 249.641C118.82 250.407 117.514 251.509 116.507 252.863C115.529 254.178 114.741 255.624 114.166 257.159C112.985 260.209 112.555 263.403 111.961 266.467C111.367 269.532 110.608 272.51 109.047 275.059C108.266 276.319 107.328 277.472 106.505 278.704C105.626 279.902 105.024 281.282 104.744 282.742C104.328 285.742 105.982 288.377 105.639 291.033C105.47 292.337 105.028 293.591 104.343 294.713C103.698 295.845 102.911 296.861 102.195 297.95C101.462 298.981 100.825 300.076 100.29 301.222C99.7882 302.353 99.4948 303.566 99.4237 304.802C99.2447 307.193 99.5883 309.463 99.4237 311.604C99.2285 313.642 98.6349 315.623 97.6766 317.432C96.8174 319.172 95.8651 320.754 95.0632 322.279C94.6623 323.046 94.2971 323.79 93.9892 324.542C93.7075 325.266 93.4988 326.017 93.3663 326.783C93.1575 328.122 93.1407 329.484 93.3162 330.828C93.5057 332.702 94.2066 334.488 95.3425 335.991C95.5196 336.213 95.7135 336.421 95.9224 336.614C96.0636 336.761 96.2195 336.893 96.3878 337.008C96.6456 337.201 96.7888 337.287 96.7888 337.287C96.2849 336.885 95.8242 336.431 95.4141 335.934C94.3207 334.431 93.6573 332.658 93.4952 330.807C93.3362 329.48 93.3651 328.138 93.5811 326.819C93.7164 326.069 93.9275 325.335 94.2112 324.628C94.5321 323.867 94.8929 323.124 95.2923 322.401C96.0943 320.883 97.0609 319.315 97.9344 317.561C98.923 315.724 99.5386 313.709 99.7459 311.633C99.932 309.442 99.6027 307.165 99.7817 304.831C99.8626 303.645 100.154 302.484 100.641 301.401C101.165 300.274 101.796 299.2 102.524 298.193C103.24 297.141 104.006 296.088 104.672 294.935C105.392 293.77 105.853 292.464 106.025 291.105C106.369 288.277 104.729 285.62 105.152 282.835C105.428 281.436 106.01 280.116 106.856 278.969C107.665 277.759 108.61 276.606 109.405 275.31C111.016 272.711 111.796 269.653 112.39 266.596C112.985 263.539 113.421 260.374 114.581 257.388C115.139 255.886 115.908 254.471 116.865 253.185C117.828 251.887 119.078 250.829 120.517 250.092L120.195 249.913C120.195 249.999 120.195 250.099 120.195 250.2C120.374 251.861 120.675 253.486 120.861 255.097C121.046 256.694 121.094 258.304 121.004 259.909C120.974 260.702 120.902 261.493 120.789 262.279C120.584 263.034 120.318 263.771 119.994 264.484C119.337 265.929 118.765 267.411 118.283 268.923C117.858 270.428 117.592 271.974 117.488 273.534C117.316 275.059 117.152 276.57 116.98 278.066C116.643 281.045 116.421 284.024 115.211 286.601C114.61 287.883 113.815 289.071 113.228 290.367C112.651 291.654 112.328 293.04 112.276 294.449C112.125 297.184 112.476 299.861 111.739 302.282C111.001 304.702 109.455 306.706 108.674 308.998C107.894 311.289 108.187 313.702 108.524 315.821C108.861 317.94 109.24 320.031 108.753 321.914C108.266 323.797 106.992 325.201 106.14 326.711C105.695 327.436 105.398 328.242 105.266 329.081C105.168 329.851 105.118 330.626 105.116 331.401C105.117 332.1 105.013 332.795 104.808 333.463C104.572 334.043 104.195 334.555 103.712 334.953C102.885 335.621 101.954 336.151 100.956 336.521C100.221 336.798 99.4606 337.004 98.6862 337.136C98.2134 337.221 97.7344 337.267 97.2542 337.272L96.7458 337.237Z" fill="#263238"/>
<path d="M119.149 253.736C119.112 253.803 119.088 253.876 119.077 253.951C119.034 254.116 118.984 254.331 118.92 254.588C118.784 255.147 118.619 255.985 118.347 257.044C118.075 258.104 117.431 259.278 116.915 260.746C116.4 262.214 115.762 263.882 115.225 265.758C114.688 267.634 114.209 269.746 113.707 271.994C113.278 274.397 112.514 276.728 111.438 278.918C110.858 280.071 110.199 281.238 109.683 282.498C109.171 283.805 108.827 285.171 108.66 286.565C108.307 289.454 107.798 292.323 107.135 295.157C105.703 300.971 104.356 306.498 103.125 311.539L99.7669 324.9C98.8289 328.68 98.0699 331.752 97.5401 333.914L96.953 336.377C96.8957 336.635 96.8528 336.842 96.817 337.014C96.8094 337.088 96.8094 337.162 96.817 337.236C96.817 337.236 96.817 337.172 96.8957 337.029C96.9745 336.885 97.0031 336.656 97.0819 336.399C97.2394 335.804 97.4614 334.967 97.7478 333.964C98.3134 331.816 99.1225 328.744 100.111 324.978C101.099 321.212 102.259 316.658 103.569 311.646C104.879 306.634 106.175 301.071 107.614 295.257C108.278 292.423 108.787 289.555 109.139 286.665C109.299 285.307 109.629 283.974 110.12 282.699C110.621 281.453 111.266 280.293 111.846 279.119C112.929 276.894 113.691 274.526 114.108 272.087C114.595 269.832 115.053 267.734 115.54 265.851C116.027 263.968 116.607 262.271 117.151 260.839C117.696 259.407 118.297 258.183 118.583 257.094C118.87 256.006 118.963 255.183 119.077 254.61C119.12 254.352 119.156 254.137 119.192 253.965C119.188 253.888 119.173 253.81 119.149 253.736Z" fill="#263238"/>
<path d="M97.9988 337.272C102.631 334.523 103.956 326.167 102.03 321.141C100.104 316.114 96.71 311.518 96.1944 306.155C95.7935 302.031 97.1396 297.806 96.1944 293.775C94.8985 288.341 89.5929 284.123 89.6502 278.539C89.6502 275.403 91.4688 272.453 91.3328 269.317C91.1538 265.479 88.2039 262.429 86.3781 259.042C83.5857 253.865 83.3995 247.736 82.4472 241.93C81.495 236.123 79.2754 229.901 74.1273 227.044C73.3684 231.977 72.0652 235.357 72.4734 242.037C72.6237 244.436 75.409 249.025 75.7884 254.288C76.0176 257.431 76.1751 260.574 76.3612 263.725C76.5474 266.875 76.7479 269.897 77.8434 272.761C78.6882 274.959 80.0415 276.949 80.6644 279.205C81.8386 283.465 80.2921 288.083 81.2444 292.4C82.0463 296.059 84.5809 299.21 85.0964 302.918C85.8124 308.131 82.4472 313.544 84.1728 318.52C85.032 320.983 87.0368 322.966 87.6382 325.515C88.0822 327.492 87.5953 329.582 88.0034 331.566C88.655 334.766 94.7553 337.251 98.0274 337.05" fill="#7ABC51"/>
<path d="M75.3875 231.941C75.378 232.034 75.378 232.128 75.3875 232.221C75.3875 232.428 75.4448 232.693 75.4877 233.03C75.5951 233.746 75.7168 234.784 75.9603 236.137C76.2037 237.49 76.9197 239.001 77.4782 240.877C78.0367 242.753 78.6524 244.844 79.1751 247.221C79.6978 249.598 80.1489 252.233 80.6071 255.054C81.0654 257.875 81.5809 260.968 82.9842 263.911C83.6358 265.393 84.359 266.875 84.9103 268.45C85.4428 270.074 85.77 271.757 85.884 273.462C86.1465 277.08 86.6006 280.682 87.2444 284.252C88.6764 291.563 90.0154 298.522 91.2397 304.852C92.4641 311.181 93.7028 316.852 94.6908 321.635C95.6789 326.418 96.488 330.227 97.0536 332.94C97.3329 334.251 97.5548 335.282 97.7124 336.012C97.7911 336.341 97.8556 336.606 97.8985 336.807C97.9125 336.898 97.939 336.987 97.9773 337.072C97.9884 336.981 97.9884 336.89 97.9773 336.8C97.9415 336.592 97.8914 336.327 97.8341 335.991C97.698 335.275 97.5047 334.222 97.2541 332.905C96.7243 330.198 95.9653 326.332 95.0345 321.57C94.1037 316.809 92.9438 311.088 91.6836 304.773L87.7242 284.174C87.0781 280.62 86.6216 277.035 86.3566 273.434C86.2376 271.698 85.8984 269.985 85.347 268.336C84.7814 266.718 84.0439 265.235 83.3924 263.768C82.0033 260.861 81.5093 257.832 81.0081 255.011C80.5069 252.19 80.0701 249.548 79.5188 247.171C78.9675 244.794 78.366 242.66 77.7503 240.82C77.1345 238.98 76.44 237.447 76.1608 236.123C75.8815 234.798 75.7455 233.739 75.6094 233.037C75.545 232.7 75.502 232.435 75.4591 232.235C75.4467 232.135 75.4227 232.036 75.3875 231.941Z" fill="#263238"/>
<path d="M339.978 99.7461H316.966V132.002H339.978V99.7461Z" fill="#455A64"/>
<path d="M339.978 99.7461H316.966V103.484H339.978V99.7461Z" fill="#263238"/>
<path d="M339.978 128.265H316.966V132.002H339.978V128.265Z" fill="#263238"/>
<path d="M335.439 105.782H321.455V113.071H335.439V105.782Z" fill="#263238"/>
<path d="M331.758 109.426C331.723 109.426 331.723 109.133 331.587 108.646C331.382 107.954 330.957 107.348 330.377 106.92C329.911 106.573 329.358 106.361 328.779 106.31C328.2 106.258 327.618 106.369 327.098 106.628C326.578 106.888 326.141 107.288 325.835 107.782C325.529 108.276 325.366 108.845 325.365 109.426C325.367 110.062 325.562 110.682 325.925 111.204C326.289 111.726 326.802 112.125 327.398 112.348C327.889 112.53 328.417 112.588 328.936 112.515C329.455 112.443 329.947 112.243 330.369 111.932C330.944 111.503 331.366 110.901 331.572 110.214C331.708 109.72 331.708 109.426 331.744 109.426C331.78 109.426 331.744 109.498 331.744 109.641C331.749 109.846 331.727 110.05 331.68 110.25C331.52 110.999 331.102 111.668 330.498 112.14C330.047 112.497 329.513 112.733 328.945 112.826C328.378 112.918 327.796 112.865 327.255 112.67C326.586 112.431 326.007 111.991 325.598 111.41C325.188 110.83 324.969 110.137 324.969 109.426C324.969 108.716 325.188 108.023 325.598 107.442C326.007 106.862 326.586 106.422 327.255 106.183C327.796 105.991 328.378 105.939 328.944 106.032C329.511 106.125 330.046 106.359 330.498 106.713C331.104 107.186 331.522 107.858 331.68 108.61C331.728 108.809 331.749 109.014 331.744 109.219C331.78 109.355 331.773 109.426 331.758 109.426Z" fill="#455A64"/>
<path d="M323.066 115.877C323.066 115.985 323.034 116.09 322.974 116.179C322.914 116.269 322.829 116.339 322.73 116.38C322.631 116.421 322.521 116.432 322.416 116.411C322.31 116.39 322.213 116.338 322.137 116.262C322.061 116.186 322.009 116.089 321.988 115.983C321.967 115.878 321.978 115.768 322.019 115.669C322.06 115.569 322.13 115.485 322.219 115.425C322.309 115.365 322.414 115.333 322.522 115.333C322.666 115.333 322.804 115.39 322.906 115.492C323.009 115.594 323.066 115.733 323.066 115.877Z" fill="#263238"/>
<path d="M327.168 115.877C327.168 115.985 327.136 116.09 327.077 116.179C327.017 116.269 326.932 116.339 326.832 116.38C326.733 116.421 326.624 116.432 326.518 116.411C326.413 116.39 326.316 116.338 326.239 116.262C326.163 116.186 326.112 116.089 326.091 115.983C326.07 115.878 326.08 115.768 326.121 115.669C326.163 115.569 326.232 115.485 326.322 115.425C326.411 115.365 326.517 115.333 326.624 115.333C326.769 115.333 326.907 115.39 327.009 115.492C327.111 115.594 327.168 115.733 327.168 115.877Z" fill="#263238"/>
<path d="M331.272 115.877C331.272 116.02 331.215 116.156 331.115 116.257C331.014 116.358 330.877 116.414 330.735 116.414C330.627 116.416 330.52 116.385 330.43 116.326C330.339 116.266 330.268 116.182 330.226 116.082C330.184 115.982 330.173 115.872 330.194 115.766C330.214 115.66 330.266 115.562 330.343 115.486C330.419 115.409 330.517 115.357 330.623 115.336C330.73 115.316 330.84 115.327 330.939 115.369C331.039 115.411 331.124 115.482 331.183 115.572C331.242 115.663 331.273 115.769 331.272 115.877Z" fill="#263238"/>
<path d="M322.522 119.894C322.822 119.894 323.066 119.65 323.066 119.35C323.066 119.049 322.822 118.806 322.522 118.806C322.221 118.806 321.978 119.049 321.978 119.35C321.978 119.65 322.221 119.894 322.522 119.894Z" fill="#263238"/>
<path d="M327.168 119.35C327.168 119.457 327.136 119.563 327.077 119.652C327.017 119.742 326.932 119.811 326.832 119.853C326.733 119.894 326.624 119.905 326.518 119.884C326.413 119.863 326.316 119.811 326.239 119.735C326.163 119.659 326.112 119.562 326.091 119.456C326.07 119.35 326.08 119.241 326.121 119.142C326.163 119.042 326.232 118.957 326.322 118.897C326.411 118.838 326.517 118.806 326.624 118.806C326.769 118.806 326.907 118.863 327.009 118.965C327.111 119.067 327.168 119.206 327.168 119.35Z" fill="#263238"/>
<path d="M330.735 119.894C331.035 119.894 331.279 119.65 331.279 119.35C331.279 119.049 331.035 118.806 330.735 118.806C330.434 118.806 330.19 119.049 330.19 119.35C330.19 119.65 330.434 119.894 330.735 119.894Z" fill="#263238"/>
<path d="M322.522 123.374C322.822 123.374 323.066 123.131 323.066 122.83C323.066 122.53 322.822 122.286 322.522 122.286C322.221 122.286 321.978 122.53 321.978 122.83C321.978 123.131 322.221 123.374 322.522 123.374Z" fill="#263238"/>
<path d="M327.168 122.83C327.168 122.938 327.136 123.043 327.077 123.133C327.017 123.222 326.932 123.292 326.832 123.333C326.733 123.374 326.624 123.385 326.518 123.364C326.413 123.343 326.316 123.291 326.239 123.215C326.163 123.139 326.112 123.042 326.091 122.936C326.07 122.831 326.08 122.721 326.121 122.622C326.163 122.523 326.232 122.438 326.322 122.378C326.411 122.318 326.517 122.286 326.624 122.286C326.769 122.286 326.907 122.343 327.009 122.446C327.111 122.548 327.168 122.686 327.168 122.83Z" fill="#263238"/>
<path d="M330.735 123.374C331.035 123.374 331.279 123.131 331.279 122.83C331.279 122.53 331.035 122.286 330.735 122.286C330.434 122.286 330.19 122.53 330.19 122.83C330.19 123.131 330.434 123.374 330.735 123.374Z" fill="#263238"/>
<path d="M335.002 121.319C336.09 121.319 336.971 120.437 336.971 119.35C336.971 118.262 336.09 117.381 335.002 117.381C333.915 117.381 333.033 118.262 333.033 119.35C333.033 120.437 333.915 121.319 335.002 121.319Z" fill="#7ABC51"/>
<path d="M307.143 27.2227H293.825V337.065H307.143V27.2227Z" fill="#263238"/>
<path d="M293.825 40.2969H161.215V337.072H293.825V40.2969Z" fill="#455A64"/>
<path d="M164.93 27.2227H152.658V337.065H164.93V27.2227Z" fill="#263238"/>
<path d="M307.142 27.2227H152.658V40.2968H307.142V27.2227Z" fill="#263238"/>
<path d="M307.165 27.208C307.165 27.208 307.007 27.4156 306.67 27.7307L305.238 29.0481L300.463 33.3441C298.615 35.041 296.962 36.6019 295.83 37.7905C295.378 38.2403 294.954 38.7186 294.563 39.2225C294.463 39.3621 294.372 39.508 294.291 39.6592C294.255 39.7666 294.234 39.8311 294.219 39.8311C294.205 39.8311 294.219 39.7666 294.219 39.6378C294.271 39.4641 294.346 39.298 294.441 39.1437C294.791 38.5875 295.191 38.065 295.637 37.5828C297.084 35.9913 298.612 34.4738 300.212 33.0362C302.074 31.3393 303.792 29.85 305.067 28.7975C305.697 28.2677 306.219 27.8524 306.585 27.566C306.765 27.4266 306.959 27.3066 307.165 27.208Z" fill="#455A64"/>
<path d="M164.931 40.5692C164.859 40.6336 162.067 37.7052 158.659 34.025C155.251 30.3447 152.587 27.2946 152.659 27.223C152.73 27.1514 155.523 30.087 158.931 33.7672C162.339 37.4474 165.01 40.4976 164.931 40.5692Z" fill="#455A64"/>
<path d="M173.057 175.334H172.685C170.324 175.334 168.41 177.248 168.41 179.609V210.697C168.41 213.058 170.324 214.972 172.685 214.972H173.057C175.418 214.972 177.332 213.058 177.332 210.697V179.609C177.332 177.248 175.418 175.334 173.057 175.334Z" fill="#263238"/>
<path d="M174.704 205.234C174.709 204.962 174.641 204.693 174.507 204.457C174.372 204.22 174.177 204.024 173.94 203.89C173.703 203.755 173.435 203.687 173.163 203.693C172.891 203.698 172.625 203.777 172.394 203.921C172.163 204.065 171.975 204.269 171.851 204.511C171.726 204.752 171.669 205.023 171.685 205.295C171.702 205.567 171.792 205.829 171.945 206.054C172.098 206.279 172.309 206.458 172.556 206.573V208.356C172.556 208.534 172.627 208.705 172.753 208.832C172.879 208.958 173.05 209.029 173.229 209.029C173.318 209.03 173.406 209.013 173.489 208.98C173.571 208.946 173.646 208.897 173.709 208.834C173.773 208.772 173.823 208.697 173.857 208.615C173.891 208.533 173.909 208.445 173.909 208.356V206.609C174.156 206.476 174.361 206.277 174.502 206.034C174.642 205.791 174.712 205.514 174.704 205.234Z" fill="#455A64"/>
<path d="M195.053 188.681H175.027C173.773 188.681 172.757 189.697 172.757 190.95V191.151C172.757 192.404 173.773 193.421 175.027 193.421H195.053C196.307 193.421 197.323 192.404 197.323 191.151V190.95C197.323 189.697 196.307 188.681 195.053 188.681Z" fill="#263238"/>
<path d="M181.685 193.556C181.438 193.608 181.185 193.63 180.933 193.621L178.9 193.707C177.887 193.759 176.871 193.725 175.864 193.607C175.257 193.537 174.663 193.387 174.095 193.163C173.458 192.915 172.918 192.468 172.556 191.888C172.387 191.583 172.29 191.242 172.274 190.893C172.258 190.544 172.322 190.196 172.463 189.876C172.609 189.574 172.844 189.324 173.136 189.16C173.401 189.013 173.682 188.895 173.974 188.809C174.959 188.525 175.985 188.404 177.009 188.451C177.869 188.451 178.563 188.494 179.043 188.523C179.284 188.523 179.524 188.55 179.759 188.602C178.836 188.693 177.908 188.729 176.981 188.709C175.989 188.705 175.002 188.847 174.052 189.132C173.784 189.186 173.531 189.296 173.309 189.455C173.087 189.614 172.901 189.819 172.763 190.055C172.649 190.323 172.599 190.613 172.615 190.904C172.631 191.194 172.714 191.477 172.857 191.731C173.167 192.247 173.637 192.649 174.195 192.876C174.729 193.097 175.29 193.244 175.864 193.313C176.853 193.446 177.851 193.508 178.849 193.499C179.794 193.432 180.743 193.451 181.685 193.556Z" fill="#455A64"/>
<path d="M223.865 106.748C223.865 106.748 223.865 106.662 223.865 106.505C223.865 106.347 223.865 106.118 223.865 105.825C223.865 105.216 223.865 104.335 223.865 103.19C223.865 100.884 223.865 97.5261 223.822 93.2659C223.822 84.7527 223.772 72.6594 223.736 58.275L223.901 58.4397H184.521L184.707 58.2535C184.707 76.1535 184.707 92.8578 184.707 106.727L184.549 106.569L213.075 106.648L221.058 106.691H223.17H223.886H223.17H221.087L213.139 106.734L184.499 106.813H184.342V106.662C184.342 92.7934 184.342 76.1177 184.342 58.1891V58.0029H184.535H223.915H224.087V58.1676C224.087 72.595 224.022 84.7312 224.001 93.2516C224.001 97.4903 224.001 100.841 223.958 103.14C223.958 104.271 223.958 105.137 223.958 105.739C223.958 106.025 223.958 106.247 223.958 106.405C223.943 106.523 223.912 106.639 223.865 106.748Z" fill="#263238"/>
<path d="M217.393 100.748C217.387 100.686 217.387 100.624 217.393 100.562C217.393 100.426 217.393 100.254 217.393 100.039C217.393 99.5594 217.393 98.8864 217.393 98.0128C217.393 96.2372 217.393 93.6667 217.35 90.4161C217.35 83.9076 217.299 74.6641 217.264 63.7952L217.436 63.9599H190.321C190.278 63.9599 190.671 63.6091 190.507 63.7809V66.337C190.507 67.1891 190.507 68.0411 190.507 68.886V73.898C190.507 77.1987 190.507 80.4136 190.507 83.521C190.507 89.7359 190.507 95.5283 190.507 100.705L190.356 100.547L210.025 100.633H215.509H216.941H217.45H216.97H215.538L210.089 100.676L190.321 100.755H190.163V100.605C190.163 95.4138 190.163 89.6213 190.163 83.4208C190.163 80.3133 190.163 77.0985 190.163 73.7977V63.8095L190.356 63.6162H217.471H217.636V63.788C217.6 74.7357 217.572 83.9864 217.55 90.5235C217.55 93.7527 217.55 96.3088 217.507 98.0773C217.507 98.9365 217.507 99.5952 217.507 100.068V100.576C217.393 100.691 217.393 100.748 217.393 100.748Z" fill="#263238"/>
<path d="M223.865 209.072C223.865 209.072 223.865 208.914 223.865 208.621C223.865 208.327 223.865 207.905 223.865 207.318C223.865 206.165 223.865 204.454 223.865 202.306C223.865 197.91 223.865 191.516 223.815 183.482C223.815 167.415 223.765 144.818 223.736 118.477L223.908 118.656H184.528L184.714 118.469C184.714 153.761 184.714 185.773 184.664 209.093L184.528 208.965L213.282 209.036H221.158H223.206H223.922C223.922 209.036 223.7 209.036 223.206 209.036H221.187L213.376 209.072L184.535 209.144H184.406V209.072C184.406 185.745 184.406 153.74 184.349 118.448V118.262H224.065V118.441C224.03 144.797 224.001 167.465 223.979 183.597C223.979 191.623 223.944 198.003 223.937 202.385C223.937 204.533 223.937 206.244 223.937 207.397C223.937 207.955 223.937 208.385 223.937 208.678C223.937 208.972 223.865 209.072 223.865 209.072Z" fill="#263238"/>
<path d="M217.392 204.06C217.392 204.06 217.392 203.917 217.392 203.659C217.392 203.401 217.392 202.993 217.392 202.492C217.392 201.454 217.392 199.95 217.392 198.003C217.392 194.086 217.392 188.401 217.342 181.284C217.342 167.05 217.292 147.067 217.256 124.04L217.442 124.219H190.277L190.463 124.033C190.463 156.024 190.413 184.735 190.399 204.053L190.277 203.931L210.168 203.996H215.516H216.905H217.392H216.934H215.566L210.239 204.032L190.277 204.096H190.148V204.06C190.148 184.728 190.113 156.031 190.084 124.04V123.868H217.571V124.047C217.535 147.124 217.507 167.15 217.485 181.413C217.485 188.516 217.449 194.187 217.435 198.089C217.435 200.022 217.435 201.518 217.435 202.542C217.435 203.036 217.435 203.416 217.435 203.688C217.435 203.96 217.392 204.06 217.392 204.06Z" fill="#263238"/>
<path d="M223.865 323.833C223.865 323.833 223.865 323.675 223.865 323.382C223.865 323.088 223.865 322.666 223.865 322.079C223.865 320.926 223.865 319.215 223.865 317.067C223.865 312.67 223.865 306.276 223.815 298.243C223.815 282.176 223.765 259.543 223.736 233.237L223.908 233.416H184.528L184.714 233.23C184.714 268.522 184.714 300.534 184.664 323.854L184.528 323.718L213.282 323.797H221.158H223.206H223.922H223.206H221.187L213.376 323.833L184.535 323.904H184.406V323.768C184.406 300.441 184.406 268.436 184.349 233.144V232.958H224.065V233.137C224.03 259.493 224.001 282.162 223.979 298.293C223.979 306.319 223.944 312.699 223.937 317.081C223.937 319.229 223.937 320.94 223.937 322.093C223.937 322.651 223.937 323.081 223.937 323.375C223.937 323.668 223.865 323.833 223.865 323.833Z" fill="#263238"/>
<path d="M217.392 318.814C217.392 318.814 217.392 318.671 217.392 318.406C217.392 318.141 217.392 317.747 217.392 317.246C217.392 316.207 217.392 314.704 217.392 312.756C217.392 308.84 217.392 303.155 217.342 296.038C217.342 281.804 217.292 261.82 217.256 238.794L217.442 238.973H190.277L190.463 238.786C190.463 270.777 190.413 299.489 190.399 318.807L190.277 318.685L210.168 318.749H215.516H216.905H217.392H216.934H215.566L210.239 318.785L190.277 318.85H190.148V318.728C190.148 299.396 190.113 270.699 190.084 238.708V238.521H217.571V238.7C217.535 261.777 217.507 281.804 217.485 296.066C217.485 303.169 217.449 308.84 217.435 312.742C217.435 314.675 217.435 316.172 217.435 317.196C217.435 317.69 217.435 318.069 217.435 318.341C217.435 318.613 217.392 318.814 217.392 318.814Z" fill="#263238"/>
<path d="M190.907 100.727C189.873 101.816 188.747 102.815 187.542 103.712C186.423 104.702 185.226 105.6 183.962 106.397C185.003 105.316 186.128 104.32 187.327 103.419C188.447 102.428 189.645 101.528 190.907 100.727Z" fill="#263238"/>
<path d="M224.108 106.032C222.86 105.407 221.699 104.62 220.657 103.691C219.541 102.851 218.536 101.875 217.664 100.784C217.743 100.705 219.096 101.958 220.893 103.397C222.69 104.836 224.151 105.968 224.108 106.032Z" fill="#263238"/>
<path d="M223.285 59.4277C222.375 60.32 221.38 61.121 220.313 61.8192C219.321 62.6202 218.251 63.3205 217.12 63.9099C218.03 63.0179 219.026 62.217 220.092 61.5185C221.086 60.7204 222.156 60.0203 223.285 59.4277Z" fill="#263238"/>
<path d="M190.385 63.1795C189.22 62.7206 188.124 62.1038 187.127 61.3465C186.065 60.6871 185.101 59.8821 184.263 58.9551C185.33 59.5907 186.36 60.2863 187.349 61.0386C188.402 61.6915 189.416 62.4063 190.385 63.1795Z" fill="#263238"/>
<path d="M190.134 124.133C187.638 122.696 185.68 120.484 184.556 117.832C184.657 117.782 185.559 119.457 187.112 121.19C188.666 122.923 190.198 124.04 190.134 124.133Z" fill="#263238"/>
<path d="M223.393 118.391C222.551 119.378 221.615 120.282 220.6 121.09C219.668 121.992 218.652 122.802 217.564 123.51C218.409 122.525 219.344 121.621 220.357 120.811C221.288 119.907 222.305 119.097 223.393 118.391Z" fill="#263238"/>
<path d="M190.119 204.446C190.177 204.539 188.874 205.484 187.391 206.802C185.909 208.119 184.799 209.301 184.721 209.229C185.369 208.197 186.187 207.282 187.141 206.523C188.016 205.676 189.022 204.975 190.119 204.446Z" fill="#263238"/>
<path d="M222.762 208.972C220.856 207.561 219.108 205.948 217.55 204.16C218.536 204.822 219.453 205.582 220.285 206.43C221.196 207.19 222.026 208.041 222.762 208.972Z" fill="#263238"/>
<path d="M190.785 239.86C189.599 238.894 188.493 237.833 187.477 236.688C186.377 235.626 185.362 234.48 184.441 233.259C185.628 234.225 186.734 235.286 187.749 236.431C188.856 237.486 189.872 238.633 190.785 239.86Z" fill="#263238"/>
<path d="M223.736 232.979C222.819 234.112 221.81 235.168 220.721 236.136C219.715 237.183 218.62 238.141 217.449 239C219.37 236.81 221.473 234.786 223.736 232.95V232.979Z" fill="#263238"/>
<path d="M189.475 318.348C188.03 320.317 186.386 322.134 184.57 323.768C186.015 321.798 187.659 319.982 189.475 318.348Z" fill="#263238"/>
<path d="M223.213 323.832C222.093 323.168 221.065 322.359 220.156 321.427C219.171 320.587 218.297 319.624 217.557 318.562C218.562 319.379 219.519 320.254 220.421 321.183C221.404 322.009 222.336 322.894 223.213 323.832Z" fill="#263238"/>
<path d="M276.241 106.748C276.241 106.748 276.241 106.662 276.241 106.505C276.241 106.347 276.241 106.118 276.241 105.825C276.241 105.216 276.241 104.335 276.241 103.19C276.241 100.884 276.241 97.5261 276.198 93.2659C276.198 84.7527 276.148 72.6594 276.112 58.275L276.276 58.4397H236.932L237.118 58.2535C237.118 76.1535 237.118 92.8578 237.118 106.727L236.961 106.569L265.494 106.648L273.47 106.691H275.618H276.334H275.618H273.534L265.587 106.734L236.947 106.813H236.789V106.662C236.789 92.7934 236.789 76.1177 236.789 58.1891V58.0029H236.982H276.327H276.498V58.1676C276.463 72.595 276.434 84.7312 276.413 93.2516C276.413 97.4903 276.377 100.841 276.37 103.14C276.37 104.271 276.37 105.137 276.37 105.739C276.37 106.025 276.37 106.247 276.37 106.405C276.343 106.525 276.3 106.641 276.241 106.748Z" fill="#263238"/>
<path d="M269.768 100.748C269.762 100.686 269.762 100.624 269.768 100.562C269.768 100.426 269.768 100.254 269.768 100.039C269.768 99.5594 269.768 98.8864 269.768 98.0128C269.768 96.2372 269.768 93.6667 269.725 90.4161C269.725 83.9076 269.674 74.6641 269.639 63.7952L269.811 63.9599H242.696C242.653 63.9599 243.046 63.6091 242.882 63.7809V66.337C242.882 67.1891 242.882 68.0411 242.882 68.886V73.898C242.882 77.1987 242.882 80.4136 242.882 83.521C242.882 89.7359 242.882 95.5283 242.882 100.705L242.731 100.547L262.4 100.633H267.885H269.317H269.825H269.345H267.913L262.464 100.676L242.696 100.755H242.538V100.605C242.538 95.4138 242.538 89.6213 242.538 83.4208C242.538 80.3133 242.538 77.0985 242.538 73.7977V68.7857C242.538 67.9409 242.538 67.0888 242.538 66.2368V63.8095L242.731 63.6162H269.846H269.932V63.788C269.896 74.7357 269.868 83.9864 269.846 90.5235C269.846 93.7527 269.846 96.3088 269.803 98.0773C269.803 98.9365 269.803 99.5952 269.803 100.068V100.576C269.768 100.691 269.768 100.748 269.768 100.748Z" fill="#263238"/>
<path d="M276.24 209.072C276.24 209.072 276.24 208.914 276.24 208.621C276.24 208.327 276.24 207.905 276.24 207.318C276.24 206.165 276.24 204.454 276.24 202.306C276.24 197.91 276.24 191.516 276.19 183.482C276.19 167.415 276.14 144.818 276.111 118.477L276.283 118.656H236.903L237.089 118.469C237.089 153.761 237.053 185.773 237.039 209.093L236.903 208.965L265.658 209.036H273.534H275.581H276.297C276.297 209.036 276.075 209.036 275.617 209.036L273.512 209.072L265.7 209.108L236.86 209.179H236.731V209.072C236.731 185.745 236.695 153.74 236.674 118.448V118.262H276.39V118.441C276.355 144.797 276.326 167.465 276.304 183.597C276.304 191.623 276.269 198.003 276.261 202.385C276.261 204.533 276.261 206.244 276.261 207.397C276.261 207.955 276.261 208.385 276.261 208.678C276.261 208.972 276.24 209.072 276.24 209.072Z" fill="#263238"/>
<path d="M269.767 204.06C269.767 204.06 269.767 203.917 269.767 203.659C269.767 203.401 269.767 202.993 269.767 202.492C269.767 201.454 269.767 199.95 269.767 198.003C269.767 194.086 269.767 188.401 269.717 181.284C269.717 167.05 269.667 147.067 269.631 124.04L269.817 124.219H242.652L242.838 124.033C242.838 156.024 242.788 184.735 242.774 204.053L242.652 203.931L262.543 203.996H267.891H269.28H269.767H269.309H267.941L262.622 204.032L242.652 204.096H242.523V204.06C242.523 184.728 242.488 156.031 242.459 124.04V123.868H269.932V124.047C269.932 147.124 269.867 167.15 269.846 181.413C269.846 188.516 269.846 194.187 269.796 198.089C269.796 200.022 269.796 201.518 269.796 202.542C269.796 203.036 269.796 203.416 269.796 203.688C269.796 203.96 269.767 204.06 269.767 204.06Z" fill="#263238"/>
<path d="M276.24 323.833C276.24 323.833 276.24 323.675 276.24 323.382C276.24 323.088 276.24 322.666 276.24 322.079C276.24 320.926 276.24 319.215 276.24 317.067C276.24 312.67 276.24 306.276 276.19 298.243C276.19 282.176 276.14 259.543 276.111 233.237L276.283 233.416H236.903L237.089 233.23C237.089 268.522 237.053 300.534 237.039 323.854L236.903 323.718L265.658 323.797H273.534H275.581H276.297H275.617H273.598L265.786 323.833L236.946 323.904H236.817V323.768C236.817 300.441 236.781 268.436 236.76 233.144V232.958H276.476V233.137C276.44 259.493 276.412 282.162 276.39 298.293C276.39 306.319 276.355 312.699 276.347 317.081C276.347 319.229 276.347 320.94 276.347 322.093C276.347 322.651 276.347 323.081 276.347 323.375C276.347 323.668 276.24 323.833 276.24 323.833Z" fill="#263238"/>
<path d="M269.767 318.814C269.767 318.814 269.767 318.671 269.767 318.406C269.767 318.141 269.767 317.747 269.767 317.246C269.767 316.207 269.767 314.704 269.767 312.756C269.767 308.84 269.767 303.155 269.717 296.038C269.717 281.804 269.667 261.82 269.631 238.794L269.817 238.973H242.652L242.838 238.786C242.838 270.777 242.788 299.489 242.774 318.807L242.652 318.685L262.543 318.749H267.891H269.28H269.767H269.309H267.941L262.622 318.785L242.652 318.85H242.523V318.728C242.523 299.396 242.488 270.699 242.459 238.708V238.521H269.932V238.7C269.932 261.777 269.867 281.804 269.846 296.066C269.846 303.169 269.846 308.84 269.796 312.742C269.796 314.675 269.796 316.172 269.796 317.196C269.796 317.69 269.796 318.069 269.796 318.341C269.796 318.613 269.767 318.814 269.767 318.814Z" fill="#263238"/>
<path d="M243.283 100.727C242.248 101.816 241.122 102.815 239.918 103.712C238.799 104.702 237.602 105.6 236.338 106.397C237.378 105.316 238.504 104.32 239.703 103.419C240.823 102.428 242.02 101.528 243.283 100.727Z" fill="#263238"/>
<path d="M276.469 106.032C275.221 105.407 274.061 104.62 273.018 103.691C271.903 102.851 270.897 101.875 270.025 100.784C270.104 100.705 271.457 101.958 273.255 103.397C275.052 104.836 276.527 105.968 276.469 106.032Z" fill="#263238"/>
<path d="M275.66 59.4277C274.75 60.32 273.755 61.121 272.688 61.8192C271.696 62.6202 270.626 63.3205 269.495 63.9099C270.407 63.0201 271.402 62.2194 272.467 61.5185C273.461 60.7204 274.531 60.0203 275.66 59.4277Z" fill="#263238"/>
<path d="M242.76 63.1795C241.596 62.7206 240.5 62.1038 239.503 61.3465C238.441 60.6871 237.477 59.8821 236.639 58.9551C237.706 59.5907 238.736 60.2863 239.725 61.0386C240.778 61.6915 241.792 62.4063 242.76 63.1795Z" fill="#263238"/>
<path d="M242.509 124.133C240.014 122.696 238.055 120.484 236.932 117.832C237.032 117.782 237.934 119.457 239.488 121.19C241.041 122.923 242.574 124.04 242.509 124.133Z" fill="#263238"/>
<path d="M275.754 118.391C274.912 119.378 273.976 120.282 272.961 121.09C272.031 121.992 271.017 122.802 269.933 123.51C270.777 122.525 271.712 121.621 272.725 120.811C273.654 119.908 274.668 119.097 275.754 118.391Z" fill="#263238"/>
<path d="M242.495 204.446C242.553 204.539 241.249 205.484 239.767 206.802C238.285 208.119 237.175 209.301 237.097 209.229C237.745 208.197 238.563 207.282 239.517 206.523C240.392 205.676 241.398 204.975 242.495 204.446Z" fill="#263238"/>
<path d="M275.137 208.972C273.231 207.561 271.483 205.948 269.925 204.16C270.911 204.822 271.828 205.582 272.66 206.43C273.571 207.19 274.401 208.041 275.137 208.972Z" fill="#263238"/>
<path d="M243.161 239.86C241.975 238.894 240.868 237.833 239.853 236.688C238.753 235.626 237.738 234.48 236.817 233.259C238.006 234.223 239.112 235.284 240.125 236.431C241.232 237.486 242.248 238.633 243.161 239.86Z" fill="#263238"/>
<path d="M276.112 232.979C275.197 234.114 274.189 235.17 273.097 236.136C272.091 237.183 270.996 238.141 269.825 239C271.746 236.81 273.849 234.786 276.112 232.95V232.979Z" fill="#263238"/>
<path d="M241.851 318.348C240.406 320.317 238.762 322.134 236.946 323.768C237.616 322.736 238.391 321.776 239.259 320.904C240.037 319.969 240.905 319.113 241.851 318.348Z" fill="#263238"/>
<path d="M275.589 323.832C274.469 323.168 273.441 322.359 272.532 321.427C271.547 320.587 270.673 319.624 269.933 318.562C270.938 319.379 271.895 320.254 272.797 321.183C273.78 322.009 274.712 322.894 275.589 323.832Z" fill="#263238"/>
<path d="M353.468 273.935H265.644V337.071H353.468V273.935Z" fill="#7ABC51"/>
<path d="M289.2 273.935C289.321 273.935 289.2 287.266 289.2 287.266H282.698V273.935H289.2Z" fill="#263238"/>
<g opacity="0.4">
<path d="M309.555 337.071H353.468V273.934H309.555V337.071Z" fill="black"/>
</g>
<path d="M280.078 324.713H268.321V333.033H280.078V324.713Z" fill="#FAFAFA"/>
<path d="M280.092 333.047H268.3V324.691H280.092V333.047ZM268.336 333.047H280.057V324.727H268.336V333.047Z" fill="#263238"/>
<path d="M288.126 324.713H282.248V333.033H288.126V324.713Z" fill="#FAFAFA"/>
<path d="M288.141 333.047H282.227V324.691H288.141V333.047ZM282.27 333.047H288.105V324.727H282.27V333.047Z" fill="#263238"/>
</svg>
