<svg width="32" height="32" viewBox="0 0 32 32" fill="none" xmlns="http://www.w3.org/2000/svg">
<g clip-path="url(#clip0_252_4141)">
<path d="M0 10.7333C0 6.93673 0 5.03843 0.750577 3.5935C1.38308 2.37588 2.37588 1.38308 3.5935 0.750577C5.03843 0 6.93673 0 10.7333 0H21.2667C25.0633 0 26.9616 0 28.4065 0.750577C29.6241 1.38308 30.6169 2.37588 31.2494 3.5935C32 5.03843 32 6.93673 32 10.7333V21.2667C32 25.0633 32 26.9616 31.2494 28.4065C30.6169 29.6241 29.6241 30.6169 28.4065 31.2494C26.9616 32 25.0633 32 21.2667 32H10.7333C6.93673 32 5.03843 32 3.5935 31.2494C2.37588 30.6169 1.38308 29.6241 0.750577 28.4065C0 26.9616 0 25.0633 0 21.2667V10.7333Z" fill="white"/>
<path d="M12.3334 24.5C11.6855 24.5 11.7956 24.2553 11.5721 23.6384L9.66675 17.3676L24.3334 8.66663" fill="#7BCE47"/>
<path d="M12.3333 24.5C12.8333 24.5 13.0542 24.2713 13.3333 24L15.9999 21.407L12.6736 19.4011" fill="#589134"/>
<path d="M12.6733 19.4017L20.7333 25.3565C21.653 25.864 22.3168 25.6013 22.5459 24.5026L25.8268 9.04211C26.1627 7.69541 25.3134 7.08461 24.4335 7.48408L5.16855 14.9126C3.85353 15.44 3.8612 16.1737 4.92885 16.5006L9.87268 18.0436L21.3182 10.8228C21.8585 10.4951 22.3544 10.6713 21.9474 11.0325" fill="#7ABC51"/>
</g>
<defs>
<clipPath id="clip0_252_4141">
<rect width="32" height="32" fill="white"/>
</clipPath>
</defs>
</svg>
