<svg width="32" height="32" viewBox="0 0 32 32" fill="none" xmlns="http://www.w3.org/2000/svg">
<path d="M0 10.7333C0 6.93673 0 5.03843 0.750577 3.5935C1.38308 2.37588 2.37588 1.38308 3.5935 0.750577C5.03843 0 6.93673 0 10.7333 0H21.2667C25.0633 0 26.9616 0 28.4065 0.750577C29.6241 1.38308 30.6169 2.37588 31.2494 3.5935C32 5.03843 32 6.93673 32 10.7333V21.2667C32 25.0633 32 26.9616 31.2494 28.4065C30.6169 29.6241 29.6241 30.6169 28.4065 31.2494C26.9616 32 25.0633 32 21.2667 32H10.7333C6.93673 32 5.03843 32 3.5935 31.2494C2.37588 30.6169 1.38308 29.6241 0.750577 28.4065C0 26.9616 0 25.0633 0 21.2667V10.7333Z" fill="white"/>
<path fill-rule="evenodd" clip-rule="evenodd" d="M16.9293 4.39506C19.7617 4.53426 22.4011 5.7023 24.417 7.71954C26.5673 9.87116 27.7508 12.7313 27.7497 15.7728C27.7471 22.0494 22.6374 27.1563 16.3605 27.1563H16.3558C14.4496 27.1556 12.5766 26.6777 10.9131 25.7708L4.87549 27.3537L6.4913 21.4548C5.49461 19.7285 4.97016 17.7702 4.97099 15.7638C4.97351 9.48739 10.0827 4.38098 16.3603 4.38098L16.9293 4.39506ZM11.1928 23.7099L11.5385 23.915C12.992 24.777 14.658 25.2331 16.3566 25.2338H16.3604C21.578 25.2338 25.8246 20.9893 25.8267 15.7722C25.8276 13.2441 24.8439 10.8669 23.0567 9.07847C21.2694 7.28998 18.8927 6.30447 16.3642 6.30365C11.1426 6.30365 6.89603 10.5478 6.89395 15.7645C6.89324 17.5523 7.39369 19.2934 8.34128 20.7998L8.56636 21.1578L7.61005 24.6493L11.1928 23.7099ZM22.0983 18.4798C22.0271 18.3611 21.8375 18.2899 21.5529 18.1476C21.2683 18.0052 19.8692 17.3171 19.6083 17.2221C19.3475 17.1273 19.1577 17.0799 18.9681 17.3645C18.7784 17.6492 18.233 18.2899 18.0669 18.4798C17.901 18.6696 17.735 18.6934 17.4504 18.551C17.1659 18.4087 16.2489 18.1082 15.1619 17.1392C14.3159 16.385 13.7448 15.4536 13.5788 15.1688C13.4128 14.8841 13.5611 14.7301 13.7035 14.5883C13.8316 14.4608 13.9881 14.2561 14.1304 14.09C14.2727 13.9239 14.3201 13.8052 14.415 13.6155C14.5099 13.4256 14.4624 13.2596 14.3913 13.1172C14.3201 12.9747 13.751 11.5747 13.5139 11.0051C13.2828 10.4506 13.0482 10.5256 12.8736 10.5169C12.7078 10.5087 12.5179 10.5068 12.3282 10.5068C12.1384 10.5068 11.8301 10.578 11.5693 10.8628C11.3084 11.1475 10.5733 11.8357 10.5733 13.2357C10.5733 14.6358 11.593 15.9882 11.7353 16.1781C11.8776 16.368 13.742 19.2408 16.5967 20.473C17.2756 20.7661 17.8057 20.9411 18.219 21.0722C18.9008 21.2886 19.5211 21.2581 20.0115 21.1849C20.5582 21.1032 21.6952 20.4968 21.9323 19.8324C22.1694 19.1679 22.1694 18.5984 22.0983 18.4798Z" fill="#7ABC51"/>
</svg>
